<?xml version="1.0" standalone="no"?>
<!DOCTYPE svg PUBLIC "-//W3C//DTD SVG 1.1//EN" "http://www.w3.org/Graphics/SVG/1.1/DTD/svg11.dtd" >
<svg xmlns="http://www.w3.org/2000/svg">
<metadata>Generated by IcoMoon</metadata>
<defs>
<font id="icomoon" horiz-adv-x="1024">
<font-face units-per-em="1024" ascent="960" descent="-64" />
<missing-glyph horiz-adv-x="1024" />
<glyph unicode="&#x20;" horiz-adv-x="512" d="" />
<glyph unicode="&#xe900;" glyph-name="id-terrain" d="M940.875 696.772v0c0.241 0.72 0.38 1.548 0.38 2.409s-0.139 1.69-0.396 2.465l0.016-0.055-3.614 4.216-417.431 235.52-7.831 1.807h-3.012l-418.033-233.111-3.614-4.216c-0.194-0.723-0.306-1.553-0.306-2.409s0.112-1.686 0.321-2.477l-0.015 0.067v-498.146c0.18-6.119 3.479-11.429 8.356-14.413l0.076-0.043 412.612-230.701h13.854l413.214 231.304c4.954 3.028 8.253 8.338 8.432 14.431l0.001 0.026v493.327zM495.736-3.765l-380.085 213.835v127.096l380.085-212.631zM495.736 161.28l-380.085 213.835v127.096l380.085-212.631zM495.736 326.325l-380.085 212.028v129.506l380.085-212.631zM512 483.539l-378.88 212.028 378.88 212.631 378.88-212.631zM908.348 210.071l-380.085-213.835v128.301l380.085 212.631zM908.348 375.115l-380.085-212.631v127.096l380.085 213.233zM908.348 540.16l-380.085-212.631v127.699l380.085 212.631zM215.040 712.433c-9.183-0.321-16.545-7.683-16.865-16.836l-0.001-0.030c0.031-4.478 1.868-8.522 4.818-11.443l0.001-0.001c3.040-2.981 7.208-4.821 11.806-4.821 2.257 0 4.41 0.443 6.377 1.247l-0.113-0.041c2.062 1.065 3.84 2.266 5.461 3.647l-0.040-0.033c1.348 1.581 2.549 3.359 3.54 5.264l0.074 0.157c0.134 0.905 0.21 1.949 0.21 3.012s-0.076 2.107-0.224 3.128l0.014-0.117c0 0.029 0 0.063 0 0.097 0 8.678-6.554 15.826-14.983 16.762l-0.076 0.007zM313.826 761.826c-8.982 0-16.264-7.281-16.264-16.264v-99.388c0.062-8.935 7.32-16.153 16.263-16.153 4.464 0 8.508 1.798 11.446 4.71l-0.001-0.001c3.292 2.755 5.381 6.852 5.421 11.438v99.395c-0.334 9.052-7.752 16.264-16.855 16.264-0.004 0-0.008 0-0.011 0h0.001zM413.214 811.219c-0.18 0.007-0.391 0.011-0.602 0.011-8.982 0-16.264-7.281-16.264-16.264 0-0.004 0-0.008 0-0.012v0.001-196.367c0.031-4.478 1.868-8.522 4.818-11.443l0.001-0.001c2.782-3.327 6.934-5.429 11.577-5.429 0.165 0 0.33 0.003 0.494 0.008l-0.024-0.001c4.593 0.040 8.69 2.13 11.425 5.398l0.019 0.024c2.951 2.923 4.787 6.966 4.819 11.439v196.373c0 8.982-7.281 16.264-16.264 16.264v0zM824.621 702.193c-2.642 6.072-8.589 10.241-15.51 10.241-0.053 0-0.106 0-0.159-0.001h0.008c-6.793-0.021-12.605-4.203-15.020-10.131l-0.039-0.109c-1.126-2.289-1.785-4.983-1.785-7.831s0.659-5.541 1.832-7.937l-0.047 0.107c3.087-4.393 8.133-7.228 13.841-7.228 0.005 0 0.009 0 0.014 0h-0.001c0.194-0.009 0.421-0.013 0.649-0.013 5.524 0 10.38 2.86 13.168 7.18l0.037 0.062c2.28 2.992 3.652 6.782 3.652 10.893 0 1.697-0.234 3.339-0.671 4.895l0.031-0.127zM710.174 761.826c-0.003 0-0.007 0-0.011 0-9.103 0-16.522-7.212-16.854-16.233l-0.001-0.030v-99.388c0.040-4.593 2.13-8.69 5.398-11.425l0.024-0.019c2.938-2.91 6.981-4.709 11.445-4.709 8.943 0 16.201 7.219 16.263 16.148v99.394c0 8.982-7.281 16.264-16.264 16.264v0zM610.786 811.219c-8.982 0-16.264-7.281-16.264-16.264v0-196.367c0.031-4.478 1.868-8.522 4.818-11.443l0.001-0.001c2.755-3.292 6.852-5.381 11.438-5.421h0.007c0.14-0.005 0.305-0.007 0.47-0.007 4.643 0 8.795 2.101 11.558 5.405l0.019 0.024c2.951 2.923 4.787 6.966 4.819 11.439v196.373c0 0.003 0 0.007 0 0.011 0 8.982-7.281 16.264-16.264 16.264-0.212 0-0.423-0.004-0.633-0.012l0.030 0.001zM512 860.612c-8.982 0-16.264-7.281-16.264-16.264v0-296.96c-0.033-0.367-0.052-0.794-0.052-1.226 0-4.3 1.877-8.161 4.856-10.809l0.015-0.013c2.938-2.91 6.981-4.708 11.445-4.708s8.507 1.798 11.446 4.71l-0.001-0.001c2.994 2.661 4.871 6.522 4.871 10.822 0 0.431-0.019 0.858-0.056 1.28l0.004-0.055v296.96c0 8.982-7.281 16.264-16.264 16.264v0z" />
<glyph unicode="&#xe901;" glyph-name="id-no-traffic" d="M1024 538.353h-120.471l-120.471 240.941h-481.882l-180.706-240.941h-120.471v-301.176h120.471c0-66.534 53.937-120.471 120.471-120.471s120.471 53.937 120.471 120.471v0 0h301.176c0-66.534 53.937-120.471 120.471-120.471s120.471 53.937 120.471 120.471v0 0h120.471zM838.475 538.353h-236.122v180.706h142.155zM333.704 719.059h208.414v-180.706h-342.136zM240.941 176.941c-33.267 0-60.235 26.968-60.235 60.235s26.968 60.235 60.235 60.235c33.267 0 60.235-26.968 60.235-60.235v0c0-33.267-26.968-60.235-60.235-60.235v0zM783.059 176.941c-33.267 0-60.235 26.968-60.235 60.235s26.968 60.235 60.235 60.235c33.267 0 60.235-26.968 60.235-60.235v0c0-33.267-26.968-60.235-60.235-60.235v0zM963.765 297.412h-77.704c-21.494 35-59.563 57.991-103.002 57.991s-81.509-22.991-102.703-57.468l-0.299-0.523h-336.113c-21.494 35-59.563 57.991-103.002 57.991s-81.509-22.991-102.703-57.468l-0.299-0.523h-77.704v180.706h903.529zM25.713 4.36l927.245 927.245 42.593-42.593-927.245-927.245-42.593 42.593z" />
<glyph unicode="&#xe902;" glyph-name="id-heatmap" d="M283.106 410.654c-150.367 0-272.264 121.897-272.264 272.264s121.897 272.264 272.264 272.264c150.367 0 272.264-121.897 272.264-272.264v0c-0.342-150.229-122.034-271.921-272.23-272.263h-0.033zM283.106 863.624c-99.801 0-180.706-80.905-180.706-180.706s80.905-180.706 180.706-180.706c99.801 0 180.706 80.905 180.706 180.706v0c0 99.801-80.905 180.706-180.706 180.706v0zM666.805-36.292c-121.092 0-219.256 98.164-219.256 219.256s98.164 219.256 219.256 219.256c121.092 0 219.256-98.164 219.256-219.256v0c-0.342-120.955-98.302-218.915-219.224-219.256h-0.033zM666.805 325.12c-80.173-0.001-145.166-64.994-145.166-145.167s64.994-145.167 145.167-145.167c80.174 0 145.167 64.994 145.167 145.167 0 0.212 0 0.423-0.001 0.635v-0.033c0.007 0.537 0.011 1.172 0.011 1.807 0 80.174-64.994 145.167-145.167 145.167-0.004 0-0.008 0-0.012 0h0.001zM787.878 682.918c-66.534 0-120.471 53.937-120.471 120.471s53.937 120.471 120.471 120.471c66.534 0 120.471-53.937 120.471-120.471v0c0-66.534-53.937-120.471-120.471-120.471v0zM787.878 883.501c-44.244-0.001-80.111-35.869-80.111-80.113s35.868-80.113 80.113-80.113c44.245 0 80.113 35.868 80.113 80.113 0 0.212-0.001 0.423-0.002 0.635v-0.032c-0.341 43.985-36.077 79.511-80.111 79.511-0.001 0-0.002 0-0.002 0v0zM206.607-49.544c-77.18 0-139.746 62.566-139.746 139.746s62.566 139.746 139.746 139.746c77.18 0 139.746-62.566 139.746-139.746v0c0-77.18-62.566-139.746-139.746-139.746v0zM206.607 182.362c-50.447-1.015-90.953-42.15-90.953-92.745 0-51.231 41.531-92.762 92.762-92.762s92.762 41.531 92.762 92.762c0 0.206-0.001 0.411-0.002 0.616v-0.032c-0.332 50.979-41.735 92.178-92.761 92.178-0.636 0-1.271-0.006-1.904-0.019l0.095 0.002zM886.061 399.812c-63.873 0-115.652 51.779-115.652 115.652s51.779 115.652 115.652 115.652c63.873 0 115.652-51.779 115.652-115.652v0c0-63.873-51.779-115.652-115.652-115.652v0zM886.061 591.962c-41.728-0.678-75.294-34.664-75.294-76.489 0-42.249 34.25-76.499 76.499-76.499 42.246 0 76.493 34.244 76.499 76.489v0.001c0 0.003 0 0.006 0 0.009 0 42.249-34.25 76.499-76.499 76.499-0.424 0-0.846-0.003-1.268-0.010l0.064 0.001z" />
<glyph unicode="&#xe903;" glyph-name="id-kml" d="M81.92 301.026c0-18.297-14.833-33.129-33.129-33.129s-33.129 14.833-33.129 33.129v0c-0.058 0.724-0.092 1.566-0.092 2.417 0 17.632 14.293 31.925 31.925 31.925 0.244 0 0.487-0.003 0.73-0.008l-0.036 0.001c0.375 0.015 0.814 0.024 1.256 0.024 17.964 0 32.527-14.563 32.527-32.527 0-0.644-0.019-1.284-0.056-1.919l0.004 0.088zM248.169 383.548l-39.755-41.562v-72.282h-60.235v361.412h60.235v-209.619l107.219 107.821h72.885l-96.376-99.991 101.798-159.624h-75.294zM872.809 432.339v-162.635h-63.849v143.962c0.219 1.829 0.344 3.946 0.344 6.093 0 29.94-24.271 54.212-54.212 54.212-0.968 0-1.931-0.025-2.887-0.076l0.134 0.006c-36.778-1.451-66.043-31.617-66.043-68.618 0-2.564 0.141-5.095 0.414-7.586l-0.027 0.307v-128.301h-63.849v143.962c0.219 1.829 0.344 3.946 0.344 6.093 0 29.94-24.271 54.212-54.212 54.212-0.968 0-1.931-0.025-2.887-0.076l0.134 0.006c-37.043-1.127-66.643-31.426-66.643-68.638 0-2.557 0.14-5.081 0.412-7.565l-0.027 0.307v-128.301h-63.247v260.216h63.247v-48.188c16.749 30.484 48.641 50.801 85.279 50.801 2.209 0 4.401-0.074 6.573-0.219l-0.295 0.016c1.988 0.161 4.303 0.253 6.64 0.253 38.64 0 71.42-25.092 82.934-59.871l0.177-0.617c14.434 35.749 48.849 60.516 89.048 60.516 2.579 0 5.135-0.102 7.662-0.302l-0.334 0.021c1.6 0.101 3.469 0.159 5.351 0.159 49.901 0 90.353-40.452 90.353-90.353 0-3.451-0.193-6.857-0.57-10.208l0.038 0.411zM1008.339 630.513v-361.412h-60.235v361.412z" />
<glyph unicode="&#xe904;" glyph-name="id-unlock" d="M571.031 302.231c-0.667-21.231-12.222-39.623-29.243-49.843l-0.273-0.152v-127.699h-59.633v127.699c-17.293 10.372-28.848 28.764-29.513 49.902l-0.002 0.094c0 33.267 26.968 60.235 60.235 60.235s60.235-26.968 60.235-60.235v0zM392.734 927.473c22.169 10.155 47.91 17.939 74.853 22.079l1.646 0.208c12.774 1.83 27.6 2.921 42.663 3.011h0.104c0.002 0 0.004 0 0.006 0 162.706 0 294.725-131.386 295.749-293.851v-120.569c48.766-0.339 88.207-39.78 88.546-88.513v-421.679c0-0.001 0-0.001 0-0.002 0-48.903-39.643-88.546-88.546-88.546-0.212 0-0.423 0.001-0.635 0.002h-590.273c-0.179-0.001-0.391-0.002-0.602-0.002-48.903 0-88.546 39.643-88.546 88.546 0 0.001 0 0.001 0 0.002v0 421.647c0 0.001 0 0.001 0 0.002 0 48.903 39.643 88.546 88.546 88.546 0.212 0 0.423-0.001 0.635-0.002h531.845v120.471c-0.014 129.731-105.185 234.893-234.918 234.893-13.187 0-26.119-1.086-38.714-3.175l1.368 0.187c-20.654-3.516-39.065-8.958-56.487-16.285l1.673 0.624zM838.475 453.421c-2.362 14.137-14.505 24.778-29.133 24.778-0.771 0-1.534-0.030-2.29-0.088l0.1 0.006h-590.306c-16.301 0-29.515-13.214-29.515-29.515v0-421.647c0-16.301 13.214-29.515 29.515-29.515v0h590.306c16.301 0 29.515 13.214 29.515 29.515v0z" />
<glyph unicode="&#xe905;" glyph-name="id-timelapse" d="M557.779 11.896c1.807-8.785 6.824-16.164 13.746-21.010l0.109-0.072c5.138-3.835 11.613-6.14 18.626-6.14 2.364 0 4.667 0.262 6.881 0.758l-0.209-0.039 27.708 6.024c8.794 2.057 16.039 7.53 20.399 14.91l0.081 0.149c3.024 4.733 4.819 10.503 4.819 16.694 0 3.065-0.44 6.027-1.261 8.827l0.056-0.221c-2.057 8.794-7.53 16.039-14.91 20.399l-0.149 0.081c-4.877 3.284-10.883 5.243-17.347 5.243-2.827 0-5.566-0.374-8.171-1.076l0.219 0.050-24.094-4.819c-15.597-3.175-27.169-16.78-27.169-33.087 0-2.36 0.242-4.663 0.704-6.887l-0.038 0.219zM883.652 593.167c3.012-7.831 6.024-15.059 8.433-22.889 2.48-6.947 6.874-12.701 12.547-16.795l0.103-0.071c5.191-3.804 11.704-6.086 18.75-6.086 3.861 0 7.561 0.685 10.987 1.941l-0.222-0.071c13.376 4.463 22.848 16.872 22.848 31.494 0 3.82-0.647 7.489-1.836 10.904l0.071-0.232c0 9.035-6.024 18.071-9.638 26.504-5.141 12.467-17.2 21.082-31.27 21.082-0.018 0-0.037 0-0.055 0h0.003c-1.811 0.379-3.892 0.596-6.024 0.596s-4.213-0.217-6.222-0.63l0.198 0.034c-12.955-4.697-22.044-16.897-22.044-31.22 0-5.3 1.245-10.309 3.457-14.752l-0.087 0.192zM758.362 116.706h-7.228c-6.786-0.284-13.004-2.496-18.183-6.098l0.113 0.074-21.082-12.649c-7.578-4.386-13.074-11.655-15.019-20.271l-0.040-0.209c-1.557-3.743-2.462-8.090-2.462-12.649s0.904-8.907 2.544-12.873l-0.082 0.224c2.45-4.145 5.685-7.572 9.527-10.169l0.111-0.071c5.098-3.361 11.35-5.362 18.071-5.362s12.973 2.001 18.195 5.439l-0.125-0.077 24.094 15.059c7.313 4.776 12.563 12.192 14.418 20.865l0.039 0.217c0.419 2.013 0.659 4.325 0.659 6.694 0 6.913-2.043 13.349-5.558 18.737l0.081-0.132c-4.316 6.257-10.545 10.924-17.832 13.188l-0.239 0.064zM945.694 494.984v0c-9.073-0.604-17.099-4.647-22.871-10.823l-0.018-0.020c-5.609-6.256-9.038-14.567-9.038-23.679 0-0.146 0.001-0.292 0.003-0.437v0.022c0-7.831 0-16.264 0-24.696-0.011-0.317-0.017-0.689-0.017-1.063 0-10.979 5.439-20.687 13.77-26.577l0.102-0.068c5.23-3.633 11.676-5.863 18.633-6.023l0.040-0.001c0.116-0.001 0.252-0.002 0.389-0.002 8.736 0 16.668 3.444 22.512 9.048l-0.011-0.011c6.303 5.75 10.242 13.998 10.242 23.167 0 0.114-0.001 0.228-0.002 0.342v-0.017c0.288 4.233 0.452 9.175 0.452 14.155s-0.164 9.922-0.488 14.821l0.035-0.666c-0.442 9.296-4.516 17.562-10.824 23.474l-0.019 0.017c-5.984 5.579-14.034 9.012-22.885 9.035h-0.005zM816.791 184.772c-5.033-5.779-8.101-13.384-8.101-21.705 0-10.11 4.529-19.162 11.668-25.239l0.047-0.039c5.301-3.76 11.902-6.010 19.029-6.010 10.256 0 19.424 4.661 25.501 11.979l0.044 0.054c6.626 7.228 12.649 15.059 18.071 22.287 4.137 5.468 6.626 12.382 6.626 19.878 0 10.801-5.169 20.395-13.168 26.443l-0.083 0.060c-5.5 4.063-12.391 6.536-19.856 6.626h-4.84c-9.195-1.276-17.053-6.165-22.223-13.161l-0.064-0.090zM893.892 325.12c0-7.831-4.819-15.059-7.831-22.889-1.404-3.536-2.218-7.632-2.218-11.919 0-11.241 5.598-21.174 14.158-27.163l0.107-0.071 7.228-4.216c3.547-1.385 7.654-2.187 11.948-2.187 14.214 0 26.375 8.792 31.341 21.235l0.080 0.228c3.012 9.035 6.626 18.673 9.035 27.106 0.892 2.911 1.406 6.258 1.406 9.724 0 14.935-9.535 27.642-22.85 32.367l-0.24 0.074h-10.24c-0.058 0-0.126 0.001-0.194 0.001-14.524 0-26.905-9.18-31.656-22.054l-0.075-0.234zM854.739 734.72c0.88 2.234 1.39 4.822 1.39 7.529s-0.51 5.295-1.44 7.673l0.049-0.143-34.334 124.687c0 4.216-3.614 7.831-6.024 7.831-3.619-0.745-6.617-2.953-8.401-5.965l-0.032-0.059-31.925-46.381h-3.614c-73.317 50.673-164.111 80.943-261.975 80.943-26.822 0-53.114-2.274-78.692-6.639l2.747 0.388c-10.842-4.819-24.696-4.819-36.141-4.819v0c-106.665-27.942-195.91-90.184-257.511-174.003l-0.899-1.281-7.831-10.842-9.638-14.456c-47.488-71.479-75.77-159.285-75.77-253.697 0-7.378 0.173-14.715 0.514-22.008l-0.039 1.033c0-9.638 0-19.275 0-28.311h2.409c0-9.638 0-19.275 4.216-28.311 16.235-100.043 62.428-187.227 128.931-254.221l-0.027 0.028c18.213-18.293 37.885-35.099 58.84-50.24l1.396-0.96c52.927-37.403 115.811-64.603 183.809-77.252l2.92-0.451c1.768-0.335 3.802-0.526 5.88-0.526 16.355 0 29.942 11.851 32.642 27.434l0.028 0.197c0.276 1.621 0.434 3.488 0.434 5.392 0 16.44-11.761 30.133-27.328 33.125l-0.211 0.034c-36.933 6.794-69.847 17.658-100.579 32.354l2.395-1.032-21.082 10.842c-12.649 7.228-25.299 15.059-37.346 23.492-103.72 73.265-170.625 192.659-170.625 327.68s66.905 254.415 169.371 326.839l1.254 0.841c64.257 46.227 144.537 73.928 231.287 73.928 81.884 0 158.003-24.681 221.324-67.009l-1.449 0.911h4.216l-32.527-46.984c-0.712-1.405-1.13-3.063-1.13-4.819s0.417-3.414 1.158-4.881l-0.028 0.062s4.819 0 9.638 0l128.301 4.819c4.739 0.881 8.746 3.509 11.409 7.176l0.036 0.052zM488.508 750.984c-0.007 0-0.015 0-0.024 0-16.966 0-30.72-13.754-30.72-30.72 0-0.424 0.009-0.845 0.026-1.265l-0.002 0.060v-304.188l280.094-144.565c3.933-2.273 8.652-3.615 13.684-3.615 0.060 0 0.12 0 0.18 0.001h-0.009c2.081-0.5 4.471-0.786 6.927-0.786 17.068 0 30.904 13.836 30.904 30.904 0 14.611-10.14 26.854-23.767 30.076l-0.21 0.042-246.362 125.289v266.842c0.015 0.359 0.024 0.781 0.024 1.205 0 16.966-13.754 30.72-30.72 30.72-0.008 0-0.017 0-0.025 0h0.001z" />
<glyph unicode="&#xe906;" glyph-name="id-pie" d="M469.835 434.146v454.776c0 11.643-9.439 21.082-21.082 21.082v0c-240.941 0-440.32-216.847-440.32-481.882 0-266.136 215.746-481.882 481.882-481.882v0c8.218-0.665 17.792-1.044 27.454-1.044 91.432 0 174.934 33.952 238.586 89.937l-0.402-0.347c3.427 3.819 5.522 8.893 5.522 14.456s-2.095 10.638-5.54 14.477l0.018-0.020zM490.918-14.005c-243.239 0.683-440.239 197.683-440.922 440.857v0.065c0 235.52 168.056 428.273 378.278 440.32v-440.32c-0.011-0.241-0.018-0.524-0.018-0.809 0-4.509 1.598-8.645 4.26-11.872l-0.026 0.032 281.299-361.412c-53.599-42.354-122.149-67.94-196.676-67.94-9.22 0-18.349 0.392-27.371 1.159l1.176-0.081zM533.082 448h462.005c11.381 0.336 20.48 9.642 20.48 21.074 0 0.003 0 0.006 0 0.009v0c0 266.136-215.746 481.882-481.882 481.882v0c-0.19 0.006-0.413 0.010-0.636 0.010-11.223 0-20.398-8.77-21.046-19.83l-0.003-0.057v-462.005c0-11.643 9.439-21.082 21.082-21.082v0zM554.165 909.402c228.569-10.391 411.256-193.078 421.612-420.687l0.035-0.96h-421.647zM995.087 405.835h-421.647c-0.181 0.006-0.394 0.009-0.608 0.009-8.258 0-15.375-4.888-18.615-11.929l-0.053-0.127c-1.949-3.078-3.105-6.825-3.105-10.842s1.157-7.764 3.155-10.927l-0.050 0.084 273.468-337.92c3.283-4.572 8.494-7.581 14.419-7.829l0.038-0.001c0.062-0.001 0.136-0.001 0.21-0.001 5.287 0 10.093 2.064 13.654 5.431l-0.009-0.009c94.616 88.228 153.6 213.607 153.6 352.762 0 0.076 0 0.152 0 0.228v-0.012c0.035 0.446 0.054 0.967 0.054 1.492 0 9.181-6.041 16.951-14.366 19.552l-0.145 0.039zM849.92 78.155l-230.701 286.118h354.184c-5.788-111.591-51.774-211.443-123.626-286.268l0.144 0.151z" />
<glyph unicode="&#xe907;" glyph-name="id-prog-circular" d="M512-59.181c-0.071 0-0.156 0-0.241 0-280.108 0-507.181 227.073-507.181 507.181s227.073 507.181 507.181 507.181c135.621 0 258.809-53.231 349.811-139.94l-0.206 0.194c4.827-4.981 7.803-11.78 7.803-19.275s-2.976-14.295-7.81-19.282l0.007 0.007-287.322-301.176h416.828c14.97 0 27.106-12.136 27.106-27.106v0c0-0.001 0-0.002 0-0.003 0-279.806-226.313-506.753-505.878-507.78h-0.098zM512 899.765c-0.084 0-0.182 0-0.281 0-250.168 0-452.969-202.801-452.969-452.969s202.801-452.969 452.969-452.969c239.996 0 436.398 186.644 451.974 422.698l0.072 1.359h-451.765c-10.99 0.061-20.426 6.654-24.628 16.091l-0.069 0.172c-1.439 3.241-2.277 7.022-2.277 10.999 0 7.13 2.693 13.631 7.117 18.541l-0.022-0.025 312.019 327.68c-78.127 66.993-180.306 107.934-292.037 108.423h-0.104z" />
<glyph unicode="&#xe908;" glyph-name="id-switch" d="M13.854 448c0-129.076 104.637-233.713 233.713-233.713s233.713 104.637 233.713 233.713c0 129.076-104.637 233.713-233.713 233.713v0c-129.076 0-233.713-104.637-233.713-233.713v0zM440.922 448c-0.001-107.119-86.838-193.957-193.958-193.957s-193.958 86.838-193.958 193.958c0 107.12 86.838 193.958 193.958 193.958 0.212 0 0.424 0 0.635-0.001h-0.033c106.86-0.342 193.355-87.049 193.355-193.957 0 0 0 0 0-0.001v0zM776.433 578.108c-71.597-0.342-129.506-58.462-129.506-130.107 0-71.857 58.251-130.108 130.108-130.108s130.107 58.251 130.108 130.107v0c0 0 0 0.001 0 0.001 0 71.857-58.251 130.108-130.108 130.108-0.212 0-0.424-0.001-0.635-0.002h0.033zM542.118 448c0-129.076 104.637-233.712 233.713-233.712s233.713 104.637 233.713 233.713c0 129.076-104.637 233.713-233.713 233.713-0.212 0-0.424 0-0.635-0.001h0.033c-128.817-0.343-233.111-104.848-233.111-233.712 0 0 0-0.001 0-0.001v0zM969.186 448c0-107.12-86.838-193.958-193.958-193.958s-193.958 86.838-193.958 193.958c0 107.12 86.838 193.958 193.958 193.958v0c0.358 0.002 0.781 0.004 1.205 0.004 107.12 0 193.958-86.838 193.958-193.958 0-0.001 0-0.003 0-0.004v0z" />
<glyph unicode="&#xe909;" glyph-name="id-prog-bar" d="M27.106 704.602v-513.205h970.391v513.205zM949.911 245.609h-875.219v405.986h875.219v-405.986zM702.344 332.348h-557.779v231.304h557.779z" />
<glyph unicode="&#xe90a;" glyph-name="id-indicator" d="M81.318 237.176h-54.212v30.118c2.046 266.367 218.285 481.549 484.862 481.882h0.032c0.603 0.003 1.316 0.004 2.030 0.004 59.389 0 116.25-10.825 168.718-30.609l-3.293 1.089 25.901-9.638-19.275-50.598-23.492 12.047c-44.739 17.214-96.5 27.185-150.589 27.185-237.859 0-430.682-192.823-430.682-430.682 0-0.239 0-0.479 0.001-0.718v0.037zM903.529 551.002l96.979 72.282c12.047 8.433 21.082 28.913 12.047 40.96s-32.527 9.035-44.574 0l-395.144-287.322c-17.224 10.389-37.977 16.627-60.168 16.865l-0.067 0.001c-0.179 0.001-0.391 0.001-0.602 0.001-69.195 0-125.289-56.094-125.289-125.289s56.094-125.289 125.289-125.289c69.195 0 125.289 56.093 125.289 125.288v0c-0.006 26.796-8.342 51.644-22.561 72.096l0.273-0.416 245.76 180.706c51.544-69.128 82.524-156.228 82.524-250.563 0-0.429-0.001-0.858-0.002-1.287v0.066-31.925h54.212v30.118c-0.5 106.842-35.694 205.368-94.883 284.997l0.915-1.289zM512 198.024c-0.178-0.002-0.389-0.003-0.6-0.003-39.255 0-71.078 31.823-71.078 71.078s31.823 71.078 71.078 71.078c39.255 0 71.078-31.823 71.078-71.078 0-0.211-0.001-0.422-0.003-0.632v0.032c0-38.922-31.553-70.475-70.475-70.475v0z" />
<glyph unicode="&#xe90b;" glyph-name="id-personalized" d="M695.718-41.111h-367.435v795.106h367.435zM382.494 13.101h259.012v686.682h-259.012zM15.661 937.111v-795.106h366.833v795.106zM328.282 882.899v-192.753h-258.409v192.753zM328.282 635.934v-192.753h-258.409v192.753zM69.873 196.216v192.753h258.409v-192.753zM641.506 937.111v-795.106h366.833v795.106zM954.127 882.899v-192.753h-258.409v192.753zM954.127 635.934v-192.753h-258.409v192.753zM695.718 196.216v192.753h258.409v-192.753zM483.087 860.612h58.428v-283.106h-58.428v283.106zM581.873 790.136l-69.873 69.873-69.873-69.873v59.031l69.873 69.873 69.873-69.873v-59.031z" />
<glyph unicode="&#xe90c;" glyph-name="id-broken" d="M303.586 835.915l0.602-235.52 385.506 1.205 215.642 126.494-397.553 226.485-204.198-118.664zM948.706 393.186c-0.006 0-0.013 0-0.020 0-4.778 0-8.69 3.709-9.014 8.405l-0.002 0.028v21.685l-18.673 10.24c-1.428 1.591-2.301 3.705-2.301 6.024s0.873 4.432 2.308 6.032l-0.007-0.008c1.532 1.563 3.665 2.531 6.024 2.531s4.492-0.969 6.022-2.53l0.001-0.001 22.889-12.649c2.453-1.795 4.068-4.61 4.216-7.808l0.001-0.023v-26.504c-1.043-3.557-4.277-6.11-8.107-6.11-1.207 0-2.354 0.253-3.392 0.71l0.054-0.021zM873.412 462.456h-4.216l-52.405 30.118c-3.706 1.183-6.344 4.596-6.344 8.625 0 4.99 4.045 9.035 9.035 9.035 2.473 0 4.713-0.993 6.345-2.603l-0.001 0.001 51.802-30.118c2.747-1.428 4.59-4.252 4.59-7.507 0-1.441-0.361-2.797-0.998-3.983l0.022 0.045c-1.781-2.214-4.49-3.619-7.527-3.619-0.107 0-0.213 0.002-0.319 0.005h0.015zM733.064 513.054h-4.819c-3.861 1.085-6.644 4.574-6.644 8.713 0 1.672 0.454 3.238 1.246 4.581l-0.023-0.042 13.252 22.889c1.63 2.525 4.431 4.173 7.616 4.173 1.628 0 3.156-0.431 4.476-1.185l-0.044 0.023 22.889-13.252c1.662-1.639 2.691-3.916 2.691-6.434 0-4.99-4.045-9.035-9.035-9.035-0.961 0-1.887 0.15-2.755 0.428l0.064-0.018-15.059 9.035-9.035-15.661c-1-1.975-2.697-3.476-4.76-4.198l-0.059-0.018zM551.153 32.979c-4.99 0-9.035 4.045-9.035 9.035v0 53.007c0 4.657 3.776 8.433 8.433 8.433v0 0c4.657 0 8.433-3.776 8.433-8.433v0-53.007c0-0.006 0-0.013 0-0.020 0-4.778-3.709-8.69-8.405-9.014l-0.028-0.002zM551.153 138.993c-0.18-0.014-0.39-0.022-0.602-0.022-4.657 0-8.433 3.776-8.433 8.433 0 0.008 0 0.015 0 0.023v-0.001 53.007c0 4.99 4.045 9.035 9.035 9.035v0c4.99 0 9.035-4.045 9.035-9.035v0-53.007c-0.325-4.724-4.237-8.433-9.015-8.433-0.007 0-0.014 0-0.021 0h0.001zM574.042 237.176c-0.626-0.241-1.351-0.381-2.108-0.381s-1.482 0.14-2.15 0.395l0.041-0.014c-2.525 1.63-4.173 4.431-4.173 7.616 0 1.628 0.431 3.156 1.185 4.476l-0.023-0.044 26.504 48.188c1.639 1.662 3.916 2.691 6.434 2.691 4.99 0 9.035-4.045 9.035-9.035 0-0.961-0.15-1.887-0.428-2.755l0.018 0.064-26.504-45.779c-1.366-3.086-4.327-5.239-7.808-5.42l-0.022-0.001zM627.049 328.734h-4.216c-2.525 1.63-4.173 4.431-4.173 7.616 0 1.628 0.431 3.156 1.185 4.476l-0.023-0.044 25.901 45.779c1.63 2.525 4.431 4.173 7.616 4.173 1.628 0 3.156-0.431 4.476-1.185l-0.044 0.023c2.782-1.576 4.628-4.516 4.628-7.888 0-1.52-0.375-2.952-1.038-4.209l0.024 0.049-26.504-45.779c-1.669-1.228-3.765-1.966-6.033-1.966-0.635 0-1.257 0.058-1.86 0.169l0.063-0.010zM680.056 420.292h-4.216c-2.782 1.576-4.628 4.516-4.628 7.888 0 1.52 0.375 2.952 1.038 4.209l-0.024-0.049 26.504 45.779c1.639 1.662 3.916 2.691 6.434 2.691 4.99 0 9.035-4.045 9.035-9.035 0-0.961-0.15-1.887-0.428-2.755l0.018 0.064-25.901-45.779c-1.669-1.228-3.765-1.966-6.033-1.966-0.635 0-1.257 0.058-1.86 0.169l0.063-0.010zM551.153-45.929c-0.626-0.241-1.351-0.381-2.108-0.381s-1.482 0.14-2.15 0.395l0.041-0.014c-2.921 0.973-4.989 3.681-4.989 6.873 0 0.553 0.062 1.091 0.18 1.609l-0.009-0.048v26.504c0.869 4.155 4.502 7.23 8.853 7.23 0.064 0 0.128-0.001 0.192-0.002h-0.010c4.99 0 9.035-4.045 9.035-9.035v0-11.445l9.638 6.024c1.236 0.619 2.694 0.981 4.236 0.981 3.202 0 6.040-1.562 7.792-3.965l0.019-0.027c0.639-1.208 1.014-2.64 1.014-4.159 0-3.371-1.847-6.312-4.584-7.864l-0.045-0.023-22.287-13.252c-0.47-0.109-1.010-0.171-1.565-0.171-1.187 0-2.307 0.286-3.295 0.793l0.041-0.019zM624.038-3.765c-3.044 0.146-5.677 1.777-7.206 4.18l-0.022 0.037c-1.428 1.591-2.301 3.705-2.301 6.024s0.873 4.432 2.308 6.032l-0.007-0.008 49.995 29.515c1.208 0.639 2.64 1.014 4.159 1.014 3.371 0 6.312-1.847 7.864-4.584l0.023-0.045c0.731-1.275 1.161-2.803 1.161-4.432 0-3.185-1.648-5.985-4.138-7.594l-0.035-0.021-49.995-28.913zM722.824 56.471c-0.193-0.018-0.417-0.029-0.644-0.029-2.911 0-5.42 1.721-6.565 4.2l-0.019 0.045c-0.731 1.275-1.161 2.803-1.161 4.432 0 3.185 1.648 5.985 4.138 7.594l0.035 0.021 49.995 29.515c1.208 0.639 2.64 1.014 4.159 1.014 3.371 0 6.312-1.847 7.864-4.584l0.023-0.045c0.731-1.275 1.161-2.803 1.161-4.432 0-3.185-1.648-5.985-4.138-7.594l-0.035-0.021-49.995-28.913zM823.416 116.706c-0.055-0.001-0.121-0.002-0.186-0.002-3.204 0-6.018 1.668-7.622 4.182l-0.022 0.036c-0.639 1.208-1.014 2.64-1.014 4.159 0 3.371 1.847 6.312 4.584 7.864l0.045 0.023 49.995 28.913c1.63 1.608 3.871 2.602 6.344 2.602 4.99 0 9.035-4.045 9.035-9.035 0-4.029-2.637-7.442-6.28-8.607l-0.064-0.018-50.598-28.913c0-1.964-0.94-3.708-2.394-4.808l-0.015-0.011zM925.816 171.52c-4.735 0.313-8.458 4.23-8.458 9.017 0 2.957 1.42 5.582 3.616 7.23l0.023 0.017 18.673 10.842v21.082c0 4.99 4.045 9.035 9.035 9.035v0c4.724-0.325 8.433-4.237 8.433-9.015 0-0.007 0-0.014 0-0.021v0.001-26.504c-0.028-3.076-1.699-5.756-4.177-7.207l-0.040-0.022-22.889-13.252c-1.001-0.768-2.271-1.231-3.65-1.231-0.2 0-0.397 0.010-0.592 0.029l0.025-0.002zM948.706 271.511c-4.99 0-9.035 4.045-9.035 9.035v60.235c0 4.99 4.045 9.035 9.035 9.035v0c0.006 0 0.014 0 0.022 0 4.657 0 8.433-3.776 8.433-8.433 0-0.212-0.008-0.422-0.023-0.63l0.002 0.028v-60.235c0-0.006 0-0.013 0-0.020 0-4.778-3.709-8.69-8.405-9.014l-0.028-0.002zM272.264 74.541l204.8 115.652-197.572 333.101-212.631 127.096v-457.186l205.402-118.664zM948.706 492.574v200.584l-171.671-99.991 171.671-100.593zM325.271 41.412l174.080-99.991-0.602 198.174-173.478-98.184zM248.772 604.009v200.584l-171.671-99.991 171.671-100.593z" />
<glyph unicode="&#xe90d;" glyph-name="id-mouse" d="M559.586-57.374h-7.831c-4.682 2.797-8.139 7.234-9.603 12.501l-0.035 0.148-128.904 301.176-159.021-139.746c-5.245-4.856-12.288-7.834-20.027-7.834-0.159 0-0.318 0.001-0.477 0.004h0.024c-0.179-0.004-0.391-0.006-0.602-0.006-17.299 0-31.322 14.023-31.322 31.322 0 0.002 0 0.004 0 0.006v0 778.842c0.888 17.253 15.093 30.906 32.487 30.906 7.537 0 14.475-2.563 19.99-6.866l-0.072 0.054 568.621-568.621c5.358-5.892 8.735-13.668 9.034-22.227l0.002-0.060c0.004-0.179 0.006-0.391 0.006-0.602 0-17.299-14.023-31.322-31.322-31.322-0.002 0-0.004 0-0.006 0h-210.823l124.085-290.334c1.232-2.555 1.952-5.556 1.952-8.725 0-8.541-5.228-15.86-12.658-18.933l-0.136-0.050-135.529-60.235c-1.177-0.264-2.528-0.415-3.915-0.415s-2.738 0.151-4.039 0.438l0.124-0.023zM421.647 311.266v0c6.616-1.387 11.938-5.913 14.408-11.915l0.048-0.132 131.915-307.2 96.376 40.96-128.301 301.176c-1.683 2.749-2.679 6.077-2.679 9.638s0.997 6.888 2.726 9.72l-0.047-0.082c3.678 5.825 10.081 9.638 17.375 9.638 0.033 0 0.066 0 0.099 0h217.444l-527.059 530.673v-728.847l162.033 141.553c3.636 3.064 8.372 4.925 13.543 4.925 0.746 0 1.483-0.039 2.209-0.114l-0.091 0.008zM228.894 150.438v0zM793.901 346.805v0z" />
<glyph unicode="&#xe90e;" glyph-name="id-y-axis" d="M1006.532 19.125v-60.235h-989.064v60.235zM75.896-41.111h-60.235v990.871h60.235zM416.226 173.327c-0.482-0.007-1.051-0.011-1.621-0.011-30.619 0-58.569 11.423-79.823 30.239l0.127-0.11 32.527 60.235c12.263-10.532 28.221-17.075 45.697-17.467l0.082-0.001c24.564 1.195 45.169 16.934 53.471 38.739l0.138 0.414 11.445 26.504-145.769 346.955h78.908l105.412-268.047 98.184 268.047h76.499l-160.828-401.769c-16.005-48.886-61.155-83.598-114.432-83.727h-0.015z" />
<glyph unicode="&#xe90f;" glyph-name="id-x-axis" d="M1006.532 19.125v-60.235h-989.064v60.235zM75.896-41.111h-60.235v990.871h60.235zM426.466 644.969l86.136-131.313 89.751 131.313h90.955l-125.892-186.729 132.518-197.572h-97.581l-89.751 140.951-98.184-140.951h-92.762l136.132 197.572-126.494 186.729z" />
<glyph unicode="&#xe910;" glyph-name="id-series" d="M1006.532 19.125v-60.235h-989.064v60.235zM903.529 521.487l-294.551-328.885-240.941 172.875-251.784-230.099 39.153-43.369 219.256 198.776 244.555-174.080 329.487 368.038zM903.529 882.899l-292.744-327.078-240.941 172.875-253.591-230.099 39.153-43.369 219.256 198.776 244.555-175.887 329.487 368.038zM75.896-38.701h-60.235v988.461h60.235z" />
<glyph unicode="&#xe911;" glyph-name="id-no-eye" d="M987.256 458.24c-79.739 181.912-258.233 306.685-465.869 306.685-3.301 0-6.594-0.032-9.88-0.094l0.493 0.007c-2.793 0.055-6.087 0.087-9.388 0.087-207.636 0-386.13-124.772-464.594-303.429l-1.275-3.256c-1.137-3.046-1.794-6.566-1.794-10.24s0.658-7.194 1.862-10.449l-0.068 0.209c79.739-181.912 258.233-306.685 465.869-306.685 3.301 0 6.594 0.032 9.88 0.094l-0.493-0.007c3.028-0.065 6.597-0.102 10.175-0.102 207.428 0 385.703 124.819 463.813 303.444l1.269 3.256c1.137 3.046 1.794 6.566 1.794 10.24s-0.658 7.194-1.862 10.449l0.068-0.209zM512 187.181c-2.727-0.059-5.942-0.093-9.164-0.093-180.224 0-335.799 105.533-408.301 258.173l-1.17 2.738c73.657 155.417 229.252 260.982 409.504 260.982 4.27 0 8.526-0.059 12.768-0.177l-0.625 0.014c3.617 0.104 7.873 0.163 12.143 0.163 180.251 0 335.847-105.565 408.334-258.243l1.17-2.739c-73.639-155.466-229.26-261.072-409.546-261.072-5.315 0-10.608 0.092-15.878 0.274l0.765-0.021zM512 652.198c-112.516-0.343-203.595-91.633-203.595-204.197 0-112.775 91.422-204.198 204.198-204.198s204.197 91.422 204.198 204.197v0c0 0 0 0.001 0 0.001 0 112.775-91.422 204.198-204.198 204.198-0.212 0-0.424 0-0.635-0.001h0.033zM512 297.412c-80.785 1.367-145.749 67.176-145.749 148.159 0 81.837 66.342 148.179 148.179 148.179 80.983 0 146.792-64.964 148.157-145.621l0.002-0.128c0.013-0.723 0.020-1.575 0.020-2.429 0-81.837-66.342-148.179-148.179-148.179-0.854 0-1.707 0.007-2.557 0.022l0.128-0.002zM25.713 4.36l927.245 927.245 42.593-42.593-927.245-927.245-42.593 42.593z" />
<glyph unicode="&#xe912;" glyph-name="id-d-template" d="M481.882 51.652h-368.64v531.275h478.268v-134.927h53.609v134.927h265.638v-132.518h53.007v449.355h-903.529v-903.529h421.647zM113.242 635.934v212.631h797.515v-212.631zM775.831 63.096v253.591h-39.755v-253.591l-81.318 81.318-28.311-27.708 129.506-128.904 129.506 128.301-28.311 28.311-81.318-81.318zM927.021 398.005h-342.136c-24.357-0.34-43.972-20.164-43.972-44.57 0-0.001 0-0.003 0-0.004v0-165.647h39.153v165.647c0.525 2.288 2.445 4.003 4.798 4.215l0.021 0.002h342.136c2.542-0.278 4.541-2.277 4.817-4.795l0.002-0.024v-165.647h39.153v166.249c0.003 0.179 0.004 0.391 0.004 0.602 0 24.285-19.687 43.972-43.972 43.972-0.001 0-0.003 0-0.004 0v0z" />
<glyph unicode="&#xe913;" glyph-name="id-import" d="M512 707.012l271.059-266.842-39.153-39.153-201.788 197.572v-595.727h-60.235v595.727l-198.776-197.572-38.551 39.153zM98.184 450.409v357.195c0 15.303 12.405 27.708 27.708 27.708v0h772.216c15.303 0 27.708-12.405 27.708-27.708v0-357.195h55.416v357.195c-0.341 45.649-37.426 82.522-83.123 82.522-0.001 0-0.002 0-0.002 0h-772.216c-0.001 0-0.001 0-0.002 0-45.697 0-82.781-36.874-83.122-82.49v-357.227z" />
<glyph unicode="&#xe914;" glyph-name="id-export" d="M512 5.873l-267.445 266.24 38.551 39.153 198.776-199.981v595.727h60.235v-595.727l201.186 199.981 39.153-39.153zM98.184 450.409v357.195c0 15.303 12.405 27.708 27.708 27.708v0h772.216c15.303 0 27.708-12.405 27.708-27.708v0-357.195h55.416v357.195c-0.341 45.649-37.426 82.522-83.123 82.522-0.001 0-0.002 0-0.002 0h-772.216c-0.001 0-0.001 0-0.002 0-45.697 0-82.781-36.874-83.122-82.49v-357.227z" />
<glyph unicode="&#xe915;" glyph-name="id-run-query" d="M385.506-51.351h-230.099c-52.562 0-95.172 42.61-95.172 95.172v0 808.358c0 52.562 42.61 95.172 95.172 95.172v0h713.186c52.562 0 95.172-42.61 95.172-95.172v0-231.906c0.192-1.142 0.301-2.457 0.301-3.798 0-13.307-10.787-24.094-24.094-24.094s-24.094 10.787-24.094 24.094c0 1.341 0.11 2.656 0.32 3.937l-0.019-0.14v231.906c0 26.281-21.305 47.586-47.586 47.586h-713.186c-26.281 0-47.586-21.305-47.586-47.586v0-808.358c0-26.281 21.305-47.586 47.586-47.586v0h230.099c11.574-1.898 20.296-11.827 20.296-23.793s-8.723-21.895-20.157-23.774l-0.14-0.019zM940.273 658.824h-856.546c-13.128 0.232-23.681 10.929-23.681 24.091 0 1.063 0.069 2.11 0.202 3.136l-0.013-0.121c0 12.974 10.518 23.492 23.492 23.492v0h856.546c12.974 0 23.492-10.518 23.492-23.492v0c0.121-0.905 0.189-1.952 0.189-3.015 0-13.162-10.553-23.858-23.659-24.090h-0.022zM764.988 424.508h-681.261c-12.974 0-23.492 10.518-23.492 23.492s10.518 23.492 23.492 23.492h681.261c12.974 0 23.492-10.518 23.492-23.492s-10.518-23.492-23.492-23.492v0zM512 186.579h-428.273c-12.974 0-23.492 10.518-23.492 23.492v0c0 0.002 0 0.005 0 0.008 0 13.095 10.447 23.75 23.461 24.086l0.031 0.001h428.273c0.002 0 0.005 0 0.008 0 12.974 0 23.492-10.518 23.492-23.492 0-0.212-0.003-0.423-0.008-0.633l0.001 0.031c0.005-0.182 0.008-0.396 0.008-0.61 0-12.641-10.248-22.889-22.889-22.889-0.215 0-0.429 0.003-0.642 0.009l0.031-0.001zM512 186.579c-0.182-0.005-0.396-0.008-0.61-0.008-12.641 0-22.889 10.248-22.889 22.889 0 0.215 0.003 0.429 0.009 0.642l-0.001-0.031v475.859c0 12.974 10.518 23.492 23.492 23.492s23.492-10.518 23.492-23.492v0-475.859c0.005-0.182 0.008-0.396 0.008-0.61 0-12.641-10.248-22.889-22.889-22.889-0.215 0-0.429 0.003-0.642 0.009l0.031-0.001zM860.16 211.878l-110.833 64.452c-3.314 1.247-7.145 1.968-11.144 1.968s-7.829-0.722-11.368-2.042l0.225 0.073c-7.4-2.207-13.478-6.916-17.394-13.125l-0.075-0.127c-0.108-0.814-0.17-1.755-0.17-2.711s0.062-1.897 0.182-2.819l-0.012 0.109c-0.106-0.724-0.167-1.56-0.167-2.409s0.061-1.686 0.178-2.503l-0.011 0.094v-133.12c-0.004-0.169-0.006-0.369-0.006-0.569 0-7.811 3.232-14.867 8.431-19.904l0.007-0.007c4.985-5.557 12.188-9.037 20.205-9.037 0.097 0 0.193 0.001 0.29 0.002h-0.015c6.082 0.632 11.604 2.567 16.435 5.519l-0.172-0.098 111.435 64.452c6.576 3.892 11.498 9.988 13.795 17.251l0.059 0.218c0.127 0.905 0.199 1.95 0.199 3.012s-0.072 2.107-0.212 3.131l0.013-0.119c-1.566 12.425-9.139 22.79-19.672 28.214l-0.206 0.096zM840.282 186.579l-101.798-60.235v118.664zM913.769 325.722c-35.564 35.71-84.773 57.806-139.144 57.806s-103.579-22.097-139.137-57.8l-0.007-0.007c-35.725-35.658-57.826-84.954-57.826-139.413 0-108.783 88.186-196.969 196.969-196.969s196.969 88.186 196.969 196.969c0 54.459-22.101 103.755-57.823 139.41l-0.003 0.003zM890.88 70.325c-29.659-29.709-70.66-48.088-115.953-48.088s-86.294 18.379-115.951 48.086l-0.002 0.002c-29.748 29.114-48.192 69.676-48.192 114.546 0 0.389 0.001 0.777 0.004 1.166v-0.060c0 0 0 0.001 0 0.001 0 90.607 73.28 164.099 163.807 164.441h0.033c90.819 0 164.442-73.623 164.442-164.442v0c0-0.030 0-0.065 0-0.1 0-45.185-18.427-86.066-48.176-115.539l-0.012-0.012z" />
<glyph unicode="&#xe916;" glyph-name="id-not-home" d="M248.772 98.033v430.682h-48.188v-481.882h622.833v481.882h-48.188v-430.682zM583.68 98.033h-143.36zM909.553 554.014l-28.311-38.551-369.242 271.059-369.242-271.059-28.311 38.551 397.553 292.141zM25.713 4.36l927.245 927.245 42.593-42.593-927.245-927.245-42.593 42.593z" />
<glyph unicode="&#xe917;" glyph-name="id-aero" d="M1015.567 184.772v0c-5.176 13.342-15.256 23.814-27.974 29.384l-0.337 0.132-369.242 162.635c-0.337 36.38-16.277 68.97-41.442 91.452l-0.121 0.106c-6.183 5.232-13.084 10.020-20.423 14.118l-0.66 0.338 20.48 40.96c11.821 23.371 18.744 50.949 18.744 80.144 0 19.569-3.111 38.412-8.865 56.061l0.36-1.278-78.306 253.591c-6.851 22.264-27.237 38.167-51.337 38.167-29.608 0-53.609-24.002-53.609-53.609 0-1.349 0.050-2.686 0.148-4.010l-0.011 0.177 26.504-415.021c-9.723-6.102-18.057-13.285-25.18-21.543l-0.119-0.142c-18.277-20.64-29.606-47.801-30.116-77.598l-0.001-0.105-60.235-4.819c-48.153-4.058-90.411-26.437-120.311-60.052l-0.16-0.183-175.285-196.969c-8.231-9.612-13.241-22.195-13.241-35.947 0-11.276 3.368-21.766 9.153-30.518l-0.128 0.207c8.52-11.088 20.612-19.060 34.533-22.21l0.403-0.077h11.445c10.056 0.497 19.197 4.042 26.618 9.722l-0.114-0.084 342.739 235.52c18.129-11.504 40.209-18.333 63.884-18.333 20.711 0 40.202 5.226 57.224 14.432l-0.638-0.315 27.708-37.948c27.165-36.724 67.209-62.576 113.347-70.913l1.101-0.165 262.024-46.984c1.9-0.272 4.094-0.428 6.325-0.428s4.425 0.155 6.572 0.456l-0.248-0.028c20.448 1.823 37.552 14.508 45.637 32.181l0.142 0.346c3.393 6.836 5.378 14.888 5.378 23.402 0 5.621-0.865 11.039-2.469 16.13l0.103-0.38zM563.2 325.722h-7.831l-6.626-7.831-3.614-3.012c-11.6-9.649-26.374-15.849-42.556-16.855l-0.211-0.011c-1.464-0.1-3.173-0.157-4.896-0.157-18.294 0-35.088 6.421-48.251 17.133l0.14-0.11-5.421 6.024c-11.399 13.28-18.339 30.676-18.339 49.694s6.94 36.415 18.425 49.797l-0.086-0.102c13.085 14.951 31.802 24.692 52.806 25.892l0.201 0.009c2.799 0.283 6.049 0.445 9.336 0.445s6.537-0.162 9.742-0.477l-0.406 0.032h7.228c11.393-3.562 21.242-9.13 29.622-16.354l-0.107 0.090c16.137-14.1 26.273-34.717 26.273-57.702 0-4.298-0.354-8.513-1.036-12.617l0.061 0.446v-10.842c-0.098-0.634-0.155-1.364-0.155-2.108s0.056-1.475 0.165-2.188l-0.010 0.080v-4.216l-3.012-6.024-3.012-4.819v-4.216l6.024-4.216zM602.353 317.892l6.024 12.047 361.412-158.419c2.127-0.787 3.715-2.574 4.208-4.775l0.008-0.044c0.572-0.846 0.914-1.889 0.914-3.012s-0.341-2.166-0.926-3.031l0.012 0.019c-1.164-2.957-3.995-5.012-7.306-5.012-0.613 0-1.21 0.070-1.782 0.204l0.053-0.010-262.024 46.984c-35.521 6.565-65.619 26.025-85.876 53.244l-0.26 0.365-28.913 40.96 7.228 9.638v4.819c3.061 1.185 5.55 3.285 7.192 5.961l0.036 0.063zM456.584 905.186c3.696-0.114 6.785-2.59 7.815-5.964l0.016-0.060 77.704-254.193c4.084-12.334 6.44-26.532 6.44-41.28 0-21.585-5.046-41.991-14.022-60.103l0.354 0.791-22.889-46.984h-38.551l-25.299 398.758c-0.287 0.901-0.453 1.937-0.453 3.012s0.166 2.111 0.473 3.084l-0.020-0.073c0.894 0.352 1.929 0.556 3.012 0.556s2.118-0.204 3.069-0.576l-0.057 0.020zM398.758 304.64l-335.511-230.701c-0.977-0.429-2.116-0.678-3.313-0.678s-2.336 0.249-3.367 0.699l0.054-0.021c-2.198 0.652-4.047 1.916-5.405 3.594l-0.016 0.020c-0.996 1.431-1.591 3.206-1.591 5.12s0.595 3.689 1.61 5.15l-0.020-0.030 180.706 198.174c22.763 25.251 54.692 41.857 90.503 44.547l0.453 0.027 60.235 4.819c3.389-11.683 8.115-21.885 14.13-31.174l-0.276 0.454zM561.995 241.393c-3.901 3.433-9.051 5.528-14.691 5.528-0.766 0-1.523-0.039-2.269-0.114l0.094 0.008c-6.367-0.865-11.751-4.463-15.008-9.553l-0.051-0.085c-3.086-3.719-4.959-8.541-4.959-13.801 0-0.868 0.051-1.723 0.15-2.564l-0.010 0.102 21.082-231.304h-120.471l21.685 231.304c0.052 0.577 0.081 1.248 0.081 1.926 0 11.821-8.962 21.55-20.462 22.762l-0.099 0.009c-0.652 0.068-1.409 0.106-2.175 0.106-5.64 0-10.79-2.095-14.716-5.549l0.025 0.021c-4.315-3.735-7.209-9.010-7.822-14.961l-0.008-0.098-24.094-256c-0.051-0.571-0.080-1.236-0.080-1.907 0-6.016 2.321-11.49 6.116-15.575l-0.013 0.014c3.988-4.451 9.755-7.239 16.173-7.239 0.244 0 0.487 0.004 0.728 0.012l-0.035-0.001h170.466c6.627 0.025 12.603 2.79 16.858 7.22l0.008 0.008c3.455 3.986 5.56 9.224 5.56 14.954 0 0.886-0.050 1.76-0.148 2.62l0.010-0.105-24.094 256c0 0.046 0.001 0.101 0.001 0.156 0 6.517-3.044 12.323-7.788 16.074l-0.043 0.033z" />
<glyph unicode="&#xe918;" glyph-name="id-bring-back" d="M953.525 585.336h-304.188v301.176c0 15.303-12.405 27.708-27.708 27.708v0h-551.153c-15.168-0.33-27.379-12.54-27.708-27.677l-0.001-0.031v-551.153c0-15.303 12.405-27.708 27.708-27.708v0h304.188v-304.188c0-15.303 12.405-27.708 27.708-27.708v0h551.153c15.168 0.33 27.379 12.54 27.708 27.677l0.001 0.031v554.165c0 15.303-12.405 27.708-27.708 27.708v0zM925.816 34.184h-496.339v496.339h496.339z" />
<glyph unicode="&#xe919;" glyph-name="id-bring-front" d="M953.525 585.336h-304.188v301.176c0 15.303-12.405 27.708-27.708 27.708v0h-551.153c-15.168-0.33-27.379-12.54-27.708-27.677l-0.001-0.031v-551.153c0-15.303 12.405-27.708 27.708-27.708v0h304.188v-304.188c0-15.303 12.405-27.708 27.708-27.708v0h551.153c15.168 0.33 27.379 12.54 27.708 27.677l0.001 0.031v554.165c0 15.303-12.405 27.708-27.708 27.708v0zM98.184 365.478v496.339h496.339v-276.48h-192.151c-0.181 0.004-0.395 0.007-0.609 0.007-14.97 0-27.106-12.136-27.106-27.106 0-0.214 0.002-0.428 0.007-0.641l-0.001 0.032v-192.151z" />
<glyph unicode="&#xe91a;" glyph-name="id-assetmanager" d="M108.424 634.729h102.4v36.141h-138.541v-204.8h36.141v168.659zM915.576 466.071h36.141v204.8h-138.541v-36.141h102.4v-168.659zM714.993 856.395l-202.391 76.499-203.595-76.499v-257.807l202.993-74.089 202.993 74.089zM512.602 907.595l156.612-60.235-60.235-22.889-157.214 60.235zM499.953 554.616l-167.454 60.235v215.642l167.454-60.235zM354.786 847.962l60.235 23.492 156.612-60.235-60.235-22.889zM691.501 617.261l-167.454-60.235v210.824l167.454 60.235zM12.649 339.576v-218.654l174.080-64.452 174.682 64.452v218.654l-174.080 66.259zM176.489 81.167l-143.36 53.609v180.706l143.36-53.609zM51.802 332.951l53.609 19.878 135.529-50.598-53.007-19.878zM340.329 134.776l-143.36-53.609v180.706l143.36 53.609zM268.649 315.482l-134.325 48.188 53.007 19.878 134.325-50.598zM837.271 405.835l-174.682-66.259v-218.654l174.682-64.452 174.080 65.656v217.449zM837.271 383.548l134.927-50.598-53.007-19.878-136.132 50.598zM827.031 82.372l-143.36 53.609v180.706l143.36-53.609zM702.344 334.155l53.609 19.878 134.325-50.598-53.007-19.878zM990.871 135.981l-143.36-53.609v180.706l143.36 53.609z" />
<glyph unicode="&#xe91b;" glyph-name="id-bpm" d="M662.588 327.529h307.2c0.18-0.002 0.393-0.004 0.606-0.004 26.281 0 47.586 21.305 47.586 47.586 0 0.213-0.001 0.426-0.004 0.639v-0.032 132.518c0.002 0.18 0.004 0.393 0.004 0.606 0 26.281-21.305 47.586-47.586 47.586-0.213 0-0.426-0.001-0.639-0.004h-313.192c-0.18 0.002-0.393 0.004-0.606 0.004-26.281 0-47.586-21.305-47.586-47.586 0-0.213 0.001-0.426 0.004-0.639v0.032-36.141h-66.259v337.318h72.282v-36.141c-0.22-1.628-0.345-3.51-0.345-5.422 0-23.529 19.001-42.62 42.496-42.766h307.214c0.18-0.002 0.393-0.004 0.606-0.004 26.281 0 47.586 21.305 47.586 47.586 0 0.213-0.001 0.426-0.004 0.639v-0.032 126.494c0.002 0.18 0.004 0.393 0.004 0.606 0 26.281-21.305 47.586-47.586 47.586-0.213 0-0.426-0.001-0.639-0.004h-307.168c-0.18 0.002-0.393 0.004-0.606 0.004-26.281 0-47.586-21.305-47.586-47.586 0-0.213 0.001-0.426 0.004-0.639v0.032-36.141h-102.4c-13.728-1.792-24.219-13.415-24.219-27.488 0-0.926 0.045-1.842 0.134-2.744l-0.009 0.114v-361.412h-72.282v36.141c0.151 1.448 0.237 3.128 0.237 4.828 0 26.939-21.566 48.84-48.374 49.383l-0.051 0.001h-307.2c-26.859-0.543-48.425-22.445-48.425-49.383 0-1.7 0.086-3.381 0.254-5.037l-0.017 0.208v-132.518c-0.002-0.18-0.004-0.393-0.004-0.606 0-26.281 21.305-47.586 47.586-47.586 0.213 0 0.426 0.001 0.639 0.004h307.168c0.18-0.002 0.393-0.004 0.606-0.004 26.281 0 47.586 21.305 47.586 47.586 0 0.213-0.001 0.426-0.004 0.639v-0.032 42.165h72.282v-361.412c0.627-13.047 11.047-23.468 24.036-24.092l0.058-0.002h96.376v-36.141c-0.002-0.18-0.004-0.393-0.004-0.606 0-26.281 21.305-47.586 47.586-47.586 0.213 0 0.426 0.001 0.639 0.004h313.192c0.18-0.002 0.393-0.004 0.606-0.004 26.281 0 47.586 21.305 47.586 47.586 0 0.213-0.001 0.426-0.004 0.639v-0.032 132.518c0.002 0.18 0.004 0.393 0.004 0.606 0 26.281-21.305 47.586-47.586 47.586-0.213 0-0.426-0.001-0.639-0.004h-307.168c-0.18 0.002-0.393 0.004-0.606 0.004-26.281 0-47.586-21.305-47.586-47.586 0-0.213 0.001-0.426 0.004-0.639v0.032-36.141h-66.259v325.271h72.282v-36.141c-0.151-1.448-0.237-3.128-0.237-4.828 0-26.939 21.566-48.84 48.374-49.383l0.051-0.001zM662.588 387.765v114.447h289.129v-114.447zM662.588 779.294v114.447h289.129v-114.447zM349.365 502.212v-114.447h-289.129v114.447zM662.588-3.765v114.447h289.129v-114.447z" />
<glyph unicode="&#xe91c;" glyph-name="id-collapse" d="M795.106 478.118h-566.212c-16.132-1.191-28.926-13.986-30.111-30.010l-0.006-0.107c-0.039-0.559-0.062-1.211-0.062-1.869 0-15.636 12.675-28.311 28.311-28.311 0.658 0 1.31 0.022 1.956 0.067l-0.087-0.005h566.212c16.634 0 30.118 13.484 30.118 30.118s-13.484 30.118-30.118 30.118v0zM883.652 938.918h-743.304c-66.534 0-120.471-53.937-120.471-120.471v0-742.099c0-66.534 53.937-120.471 120.471-120.471v0h743.304c66.534 0 120.471 53.937 120.471 120.471v0 743.304c-0.681 66.014-54.354 119.266-120.465 119.266-0.002 0-0.004 0-0.006 0v0zM943.887 76.348c0-33.267-26.968-60.235-60.235-60.235v0h-743.304c-33.267 0-60.235 26.968-60.235 60.235v0 743.304c0 33.267 26.968 60.235 60.235 60.235v0h743.304c33.267 0 60.235-26.968 60.235-60.235v0z" />
<glyph unicode="&#xe91d;" glyph-name="id-dashboard" d="M403.576 935.906h-307.2c-0.731 0.027-1.59 0.043-2.452 0.043-38.59 0-69.873-31.283-69.873-69.873 0-0.862 0.016-1.721 0.047-2.576l-0.004 0.124v-180.706c-0.027-0.731-0.043-1.59-0.043-2.452 0-38.59 31.283-69.873 69.873-69.873 0.862 0 1.721 0.016 2.576 0.047l-0.124-0.004h301.176c0.069 0 0.15 0 0.232 0 41.127 0 74.849 31.706 78.056 72.009l0.018 0.274v180.706c0.027 0.731 0.043 1.59 0.043 2.452 0 38.59-31.283 69.873-69.873 69.873-0.862 0-1.721-0.016-2.576-0.047l0.124 0.004zM415.624 682.918c-0.577-6.408-5.639-11.47-11.996-12.043l-0.051-0.004h-307.2c-6.408 0.577-11.47 5.639-12.043 11.996l-0.004 0.051v180.706c0.577 6.408 5.639 11.47 11.996 12.043l0.051 0.004h307.2c6.408-0.577 11.47-5.639 12.043-11.996l0.004-0.051zM403.576 532.329h-307.2c-0.731 0.027-1.59 0.043-2.452 0.043-38.59 0-69.873-31.283-69.873-69.873 0-0.862 0.016-1.721 0.047-2.576l-0.004 0.124v-427.671c-0.027-0.731-0.043-1.59-0.043-2.452 0-38.59 31.283-69.873 69.873-69.873 0.862 0 1.721 0.016 2.576 0.047l-0.124-0.004h301.176c0.069 0 0.15 0 0.232 0 41.127 0 74.849 31.706 78.056 72.009l0.018 0.274v427.671c0.027 0.731 0.043 1.59 0.043 2.452 0 38.59-31.283 69.873-69.873 69.873-0.862 0-1.721-0.016-2.576-0.047l0.124 0.004zM415.624 26.353c-0.577-6.408-5.639-11.47-11.996-12.043l-0.051-0.004h-307.2c-6.408 0.577-11.47 5.639-12.043 11.996l-0.004 0.051v427.671c0.577 6.408 5.639 11.47 11.996 12.043l0.051 0.004v6.024h307.2c6.408-0.577 11.47-5.639 12.043-11.996l0.004-0.051zM927.624 285.365h-307.2c-0.731 0.027-1.59 0.043-2.452 0.043-38.59 0-69.873-31.283-69.873-69.873 0-0.862 0.016-1.721 0.047-2.576l-0.004 0.124v-180.706c-0.027-0.731-0.043-1.59-0.043-2.452 0-38.59 31.283-69.873 69.873-69.873 0.862 0 1.721 0.016 2.576 0.047l-0.124-0.004h307.2c0.731-0.027 1.59-0.043 2.452-0.043 38.59 0 69.873 31.283 69.873 69.873 0 0.862-0.016 1.721-0.047 2.576l0.004-0.124v180.706c0.027 0.731 0.043 1.59 0.043 2.452 0 38.59-31.283 69.873-69.873 69.873-0.862 0-1.721-0.016-2.576-0.047l0.124 0.004zM945.694 32.376c-0.577-6.408-5.639-11.47-11.996-12.043l-0.051-0.004h-307.2c-6.408 0.577-11.47 5.639-12.043 11.996l-0.004 0.051v180.706c0.577 6.408 5.639 11.47 11.996 12.043l0.051 0.004h307.2c6.408-0.577 11.47-5.639 12.043-11.996l0.004-0.051zM927.624 935.906h-307.2c-0.731 0.027-1.59 0.043-2.452 0.043-38.59 0-69.873-31.283-69.873-69.873 0-0.862 0.016-1.721 0.047-2.576l-0.004 0.124v-421.647c-0.027-0.731-0.043-1.59-0.043-2.452 0-38.59 31.283-69.873 69.873-69.873 0.862 0 1.721 0.016 2.576 0.047l-0.124-0.004h307.2c1.267-0.084 2.746-0.132 4.237-0.132 37.003 0 67.109 29.527 68.044 66.304l0.002 0.087v427.671c0.027 0.731 0.043 1.59 0.043 2.452 0 38.59-31.283 69.873-69.873 69.873-0.862 0-1.721-0.016-2.576-0.047l0.124 0.004zM945.694 435.953c-0.577-6.408-5.639-11.47-11.996-12.043l-0.051-0.004h-307.2c-6.408 0.577-11.47 5.639-12.043 11.996l-0.004 0.051v427.671c0.577 6.408 5.639 11.47 11.996 12.043l0.051 0.004h307.2c6.408-0.577 11.47-5.639 12.043-11.996l0.004-0.051z" />
<glyph unicode="&#xe91e;" glyph-name="id-dashboardgroups" d="M465.619 816.038l-122.278 122.278h-320.452v-319.849h57.826v262.024h238.532l122.278-122.278h559.586v57.826h-535.492zM439.115 610.635h-207.209c-1.276 0.123-2.76 0.193-4.259 0.193-25.948 0-46.984-21.035-46.984-46.984 0-0.704 0.015-1.404 0.046-2.1l-0.003 0.099v-120.471c-0.023-0.55-0.036-1.195-0.036-1.843 0-25.948 21.035-46.984 46.984-46.984 0.648 0 1.293 0.013 1.935 0.039l-0.092-0.003h205.402c27.748 0.206 50.468 21.462 52.991 48.578l0.016 0.212v120.471c0.023 0.55 0.036 1.195 0.036 1.843 0 25.948-21.035 46.984-46.984 46.984-0.648 0-1.293-0.013-1.935-0.039l0.092 0.003zM446.946 440.169c-0.26-4.346-3.556-7.849-7.784-8.428l-0.047-0.005h-207.209c-4.531 0.302-8.131 3.902-8.431 8.406l-0.001 0.027v120.471c0.302 4.531 3.902 8.131 8.406 8.431l0.027 0.001h207.209c4.274-0.584 7.571-4.087 7.829-8.408l0.001-0.025zM439.115 338.372h-207.209c-0.55 0.023-1.195 0.036-1.843 0.036-25.948 0-46.984-21.035-46.984-46.984 0-0.648 0.013-1.293 0.039-1.935l-0.003 0.092v-288.527c-0.023-0.55-0.036-1.195-0.036-1.843 0-25.948 21.035-46.984 46.984-46.984 0.648 0 1.293 0.013 1.935 0.039l-0.092-0.003h202.993c27.748 0.206 50.468 21.462 52.991 48.578l0.016 0.212v288.527c0.023 0.55 0.036 1.195 0.036 1.843 0 25.948-21.035 46.984-46.984 46.984-0.648 0-1.293-0.013-1.935-0.039l0.092 0.003zM446.946-3.765c-0.26-4.346-3.556-7.849-7.784-8.428l-0.047-0.005h-207.209c-4.531 0.302-8.131 3.902-8.431 8.406l-0.001 0.027v289.129c0.302 4.531 3.902 8.131 8.406 8.431l0.027 0.001v3.614h207.209c4.274-0.584 7.571-4.087 7.829-8.408l0.001-0.025zM792.094 172.122h-207.209c-0.55 0.023-1.195 0.036-1.843 0.036-25.948 0-46.984-21.035-46.984-46.984 0-0.648 0.013-1.293 0.039-1.935l-0.003 0.092v-120.471c-0.023-0.55-0.036-1.195-0.036-1.843 0-25.948 21.035-46.984 46.984-46.984 0.648 0 1.293 0.013 1.935 0.039l-0.092-0.003h207.209c0.55-0.023 1.195-0.036 1.843-0.036 25.948 0 46.984 21.035 46.984 46.984 0 0.648-0.013 1.293-0.039 1.935l0.003-0.092v120.471c0.023 0.55 0.036 1.195 0.036 1.843 0 25.948-21.035 46.984-46.984 46.984-0.648 0-1.293-0.013-1.935-0.039l0.092 0.003zM804.744 1.054c-0.584-4.274-4.087-7.571-8.408-7.829l-0.025-0.001h-207.209c-4.199 0.299-7.531 3.632-7.829 7.804l-0.002 0.027v120.471c0.299 4.199 3.632 7.531 7.804 7.829l0.027 0.002h207.209c4.346-0.26 7.849-3.556 8.428-7.784l0.005-0.047zM792.094 610.635h-207.209c-0.55 0.023-1.195 0.036-1.843 0.036-25.948 0-46.984-21.035-46.984-46.984 0-0.648 0.013-1.293 0.039-1.935l-0.003 0.092v-284.311c-0.023-0.55-0.036-1.195-0.036-1.843 0-25.948 21.035-46.984 46.984-46.984 0.648 0 1.293 0.013 1.935 0.039l-0.092-0.003h207.209c1.63-0.206 3.516-0.323 5.43-0.323 24.973 0 45.276 19.996 45.77 44.851l0.001 0.046v288.527c0.027 0.597 0.043 1.297 0.043 2.001 0 25.948-21.035 46.984-46.984 46.984-1.5 0-2.983-0.070-4.446-0.208l0.187 0.014zM804.744 273.318c-0.324-4.391-3.966-7.831-8.411-7.831-0.008 0-0.015 0-0.023 0h-207.208c-4.325 0-7.831 3.506-7.831 7.831v288.527c0 0.006 0 0.014 0 0.022 0 4.445 3.44 8.087 7.803 8.41l0.028 0.002h207.209c4.531-0.302 8.131-3.902 8.431-8.406l0.001-0.027z" />
<glyph unicode="&#xe91f;" glyph-name="id-explorer" d="M852.932 160.075c28.703 37.796 46.241 85.448 46.982 137.164l0.002 0.172c-1.776 67.839-33.115 128.018-81.555 168.363l-0.365 0.296v373.459h-418.033l-88.546 86.136h-288.527v-701.139h435.501c29.841-91.172 112.982-156.358 211.721-159.015l0.307-0.007c51.298 1.513 98.198 19.159 136.109 48.009l-0.58-0.423 171.068-171.068 40.96 40.96zM81.92 866.635h199.981l93.967-94.569h383.096v-76.499h-677.045zM81.92 283.558v353.581h671.021v-130.108c-24.572 7.024-52.898 11.379-82.135 12.040l-0.387 0.007c-1.077 0.019-2.348 0.030-3.622 0.030-121.425 0-219.859-98.434-219.859-219.859 0-0.646 0.003-1.291 0.008-1.936l-0.001 0.099v-12.047zM670.419 130.56c-0.003 0-0.006 0-0.010 0-91.152 0-165.045 73.893-165.045 165.045 0 0.635 0.004 1.27 0.011 1.904l-0.001-0.097c1.864 45.372 19.59 86.276 47.739 117.633l-0.153-0.174c29.947 28.841 70.736 46.607 115.675 46.607 91.17 0 165.262-73.122 166.827-163.919l0.002-0.147c0.073-1.814 0.115-3.943 0.115-6.082 0-88.823-72.005-160.828-160.828-160.828-1.523 0-3.041 0.021-4.554 0.063l0.223-0.005z" />
<glyph unicode="&#xe920;" glyph-name="id-groups" d="M548.141 839.529l-96.376 96.376h-325.271v-192.753h-114.447v-789.082h891.482v192.753h114.447v692.706zM90.353 508.235v0 156.612h210.824l96.376-102.4h415.624v-524.047h-722.824v427.671zM433.694 646.776l-96.376 96.376h-132.518v114.447h210.824l96.376-102.4h415.624v-530.071h-36.141v421.647z" />
<glyph unicode="&#xe921;" glyph-name="id-luca" d="M72.282 947.953h879.435v-168.659h-879.435v168.659zM72.282 339.576v271.059h198.776v-265.035c12.047-138.541 120.471-198.776 240.941-198.776s246.965 66.259 246.965 198.776v265.035h198.776v-265.035c0-246.965-192.753-391.529-439.718-391.529s-445.741 144.565-445.741 385.506z" />
<glyph unicode="&#xe922;" glyph-name="id-memory" d="M832.452 357.647c0.549-0.039 1.19-0.061 1.836-0.061 15.303 0 27.708 12.405 27.708 27.708 0 0.445-0.010 0.888-0.031 1.328l0.002-0.062v31.322h46.381c16.634 0 30.118 13.484 30.118 30.118s-13.484 30.118-30.118 30.118v0h-46.381v33.732c-1.787 13.395-13.14 23.62-26.881 23.62-0.928 0-1.845-0.047-2.748-0.138l0.114 0.009h-93.365v81.92h93.365c0.549-0.039 1.19-0.061 1.836-0.061 15.303 0 27.708 12.405 27.708 27.708 0 0.445-0.010 0.888-0.031 1.328l0.002-0.062v34.936h46.381c0.575-0.043 1.245-0.068 1.921-0.068 14.97 0 27.106 12.136 27.106 27.106 0 0.872-0.041 1.735-0.122 2.586l0.008-0.109c0.041 0.56 0.065 1.213 0.065 1.872 0 14.97-12.136 27.106-27.106 27.106-0.659 0-1.312-0.023-1.959-0.070l0.087 0.005h-46.381v28.913c0.017 0.368 0.027 0.798 0.027 1.232 0 15.636-12.675 28.311-28.311 28.311-0.433 0-0.864-0.010-1.292-0.029l0.061 0.002h-93.365v81.318c0 33.267-26.968 60.235-60.235 60.235v0h-336.113c-33.267 0-60.235-26.968-60.235-60.235v0-81.318h-90.955c-0.368 0.017-0.798 0.027-1.232 0.027-15.636 0-28.311-12.675-28.311-28.311 0-0.433 0.010-0.864 0.029-1.292l-0.002 0.061v-34.936h-46.381c-17.468 6.024-28.913-11.445-28.913-22.889-0.072-0.743-0.113-1.605-0.113-2.478 0-14.97 12.136-27.106 27.106-27.106 0.676 0 1.346 0.025 2.009 0.073l-0.089-0.005h46.381v-34.936c-0.018-0.378-0.029-0.82-0.029-1.266 0-15.303 12.405-27.708 27.708-27.708 0.646 0 1.287 0.022 1.922 0.066l-0.086-0.005h93.365v-81.92h-93.365c-0.79 0.082-1.707 0.128-2.634 0.128-13.741 0-25.094-10.225-26.866-23.481l-0.015-0.139v-33.732h-46.381c-16.634 0-30.118-13.484-30.118-30.118s13.484-30.118 30.118-30.118v0h46.381v-34.936c1.787-13.395 13.14-23.62 26.881-23.62 0.928 0 1.845 0.047 2.748 0.138l-0.114-0.009h93.365v-81.92h-93.365c-0.549 0.039-1.19 0.061-1.836 0.061-15.303 0-27.708-12.405-27.708-27.708 0-0.445 0.010-0.888 0.031-1.328l-0.002 0.062v-34.936h-46.381c-16.634 0-30.118-13.484-30.118-30.118s13.484-30.118 30.118-30.118v0h46.381v-28.913c-0.017-0.368-0.027-0.798-0.027-1.232 0-15.636 12.675-28.311 28.311-28.311 0.433 0 0.864 0.010 1.292 0.029l-0.061-0.002h93.365v-81.318c0-33.267 26.968-60.235 60.235-60.235v0h341.534c33.267 0 60.235 26.968 60.235 60.235v0 84.329h87.341c0.368-0.017 0.798-0.027 1.232-0.027 15.636 0 28.311 12.675 28.311 28.311 0 0.433-0.010 0.864-0.029 1.292l0.002-0.061v34.936h46.381c0.56-0.041 1.213-0.065 1.872-0.065 14.97 0 27.106 12.136 27.106 27.106 0 0.659-0.023 1.312-0.070 1.959l0.005-0.087c0.039 0.549 0.061 1.19 0.061 1.836 0 15.303-12.405 27.708-27.708 27.708-0.445 0-0.888-0.010-1.328-0.031l0.062 0.002h-46.381v34.936c0.018 0.378 0.029 0.82 0.029 1.266 0 15.303-12.405 27.708-27.708 27.708-0.646 0-1.287-0.022-1.922-0.066l0.086 0.005h-95.172v72.885zM739.087 739.539h64.452v-64.452h-64.452zM739.087 482.936h64.452v-65.054h-64.452zM284.913 156.461h-64.452v64.452h64.452zM284.913 413.064h-64.452v69.873h64.452zM284.913 675.087h-64.452v64.452h64.452zM681.261 16.715h-338.522v868.593h343.944c-5.421-892.085-5.421-868.593-5.421-868.593zM801.732 220.913v-64.452h-62.645v64.452z" />
<glyph unicode="&#xe923;" glyph-name="id-roles" d="M454.174 616.056v0c-25.014 48.548-67.232 85.283-118.407 102.574l-1.461 0.428c24.916 23.929 40.528 57.385 40.959 94.489l0.001 0.080c-0.318 70.887-57.015 128.428-127.542 130.105l-0.156 0.003c-71.25-0.795-128.702-58.738-128.702-130.101 0-37.228 15.636-70.805 40.698-94.52l0.060-0.057c-52.367-17.624-94.59-53.588-119.916-100.083l-0.554-1.112v-125.892h421.647zM159.021 813.026c-0.192 2.186-0.301 4.728-0.301 7.297 0 48.903 39.643 88.546 88.546 88.546s88.546-39.643 88.546-88.546c0-2.568-0.109-5.111-0.324-7.624l0.022 0.327c-0.326-41.817-28.822-76.89-67.43-87.197l-0.635-0.144h-40.358c-39.398 10.052-68.066 45.224-68.066 87.092 0 0.088 0 0.175 0 0.263v-0.014zM414.419 535.341h-336.715v63.247c26.563 45.698 74.548 76.387 129.844 78.299l0.265 0.007h76.499c55.56-1.919 103.545-32.607 129.708-77.562l0.4-0.744zM980.028 617.864c-25.443 47.806-67.857 83.755-119.017 100.189l-1.454 0.404c26.299 23.696 42.76 57.872 42.76 95.893 0 71.191-57.712 128.904-128.904 128.904s-128.904-57.712-128.904-128.904c0-0.465 0.002-0.93 0.007-1.394l-0.001 0.071c0.868-37.14 16.886-70.375 42.087-93.895l0.078-0.072c-53.845-16.759-97.448-52.917-123.533-100.108l-0.551-1.087v-125.892h421.647v124.085zM685.478 813.026c-0.192 2.186-0.301 4.728-0.301 7.297 0 48.903 39.643 88.546 88.546 88.546s88.546-39.643 88.546-88.546c0-2.568-0.109-5.111-0.324-7.624l0.022 0.327c-0.326-41.817-28.822-76.89-67.43-87.197l-0.635-0.144h-40.358c-39.361 10.264-67.961 45.448-68.066 87.329v0.012zM940.875 535.341h-338.522v63.247c26.563 45.698 74.548 76.387 129.844 78.299l0.265 0.007h76.499c56.262-1.26 105.043-32.115 131.516-77.563l0.4-0.743zM860.762 176.941c25.408 23.514 41.261 57.036 41.261 94.261 0 70.859-57.442 128.301-128.301 128.301s-128.301-57.442-128.301-128.301c0-37.225 15.853-70.748 41.177-94.184l0.085-0.077c-53.727-16.995-97.251-53.080-123.529-100.112l-0.556-1.083v-124.085h421.647v121.675c-25.747 49.391-69.335 86.509-122.011 103.202l-1.472 0.402zM685.478 271.511c-0.192 2.186-0.301 4.728-0.301 7.297 0 48.903 39.643 88.546 88.546 88.546s88.546-39.643 88.546-88.546c0-2.568-0.109-5.111-0.324-7.624l0.022 0.327c-0.326-41.817-28.822-76.89-67.43-87.197l-0.635-0.144h-40.358c-38.974 10.158-67.391 44.737-68.065 86.061l-0.001 0.075zM940.875-6.174h-338.522v62.645c26.728 45.54 74.617 76.145 129.811 78.297l0.297 0.009h76.499c56.192-1.509 104.874-32.278 131.514-77.569l0.401-0.737zM334.306 176.941c24.916 23.929 40.528 57.385 40.959 94.489l0.001 0.080c-0.985 70.372-57.431 127.239-127.543 128.901l-0.156 0.003c-70.71-1.483-127.464-59.154-127.464-130.081 0-36.625 15.133-69.716 39.488-93.361l0.032-0.031c-52.249-17.847-94.4-53.742-119.911-100.086l-0.559-1.109v-124.085h421.647v123.482c-26.902 49.083-71.503 85.641-125.011 101.423l-1.483 0.375z" />
<glyph unicode="&#xe924;" glyph-name="id-settings" d="M1005.929 803.388c-2.244 11.863-12.529 20.715-24.88 20.715-4.103 0-7.978-0.977-11.406-2.711l0.145 0.066c-6.024 0-6.024-6.024-12.047-6.024l-96.376-96.376-78.306 78.306 96.376 96.376c3.827 3.995 6.183 9.426 6.183 15.407 0 0.939-0.058 1.864-0.171 2.772l0.011-0.109c-1.136 6.771-3.237 12.842-6.182 18.397l0.158-0.327c-6.024 6.024-6.024 6.024-12.047 6.024-19.857 6.621-42.72 10.44-66.474 10.44-35.029 0-68.119-8.306-97.406-23.056l1.245 0.568c-50.652-27.046-89.101-71.359-107.939-124.912l-0.485-1.582c-5.747-18.016-9.058-38.739-9.058-60.235s3.312-42.219 9.453-61.686l-0.395 1.451-349.365-349.365c-14.763 3.902-31.711 6.142-49.182 6.142-34.959 0-67.822-8.97-96.415-24.734l1.032 0.522c-45.084-25.696-77.962-68.42-90.097-119.2l-0.256-1.271c-5.716-16.163-9.018-34.801-9.018-54.212s3.303-38.049 9.376-55.386l-0.358 1.174c0-6.024 6.024-12.047 12.047-18.071 7.321-3.932 16.018-6.242 25.255-6.242 1.712 0 3.405 0.079 5.077 0.235l-0.214-0.016c6.024 0 6.024 6.024 12.047 6.024l84.329 84.329 66.259-66.259-84.329-84.329c-5.624-5.288-9.127-12.776-9.127-21.082s3.503-15.795 9.112-21.068l0.015-0.014c6.024-6.024 6.024-6.024 12.047-6.024 14.495-4.068 31.14-6.406 48.331-6.406 4.189 0 8.345 0.139 12.464 0.412l-0.559-0.030c106.181 0.679 192.074 86.572 192.753 192.688v0.065c0.151 2.372 0.238 5.144 0.238 7.936 0 14.38-2.29 28.225-6.526 41.19l0.265-0.937 349.365 349.365c19.122-6.646 41.163-10.485 64.1-10.485 33.798 0 65.65 8.334 93.612 23.060l-1.1-0.528c52.070 25.21 91.207 70.243 108.039 125.039l0.385 1.455c8.572 19.541 13.56 42.317 13.56 66.259s-4.988 46.718-13.983 67.346l0.422-1.087zM909.553 634.729c-28.926-28.595-68.712-46.259-112.623-46.259-20.127 0-39.388 3.711-57.135 10.487l1.099-0.369c-0.545 0.027-1.182 0.043-1.824 0.043-11.118 0-21.153-4.634-28.28-12.075l-0.013-0.014-373.459-373.459c-5.136-4.845-8.334-11.697-8.334-19.295 0-3.92 0.851-7.641 2.378-10.988l-0.068 0.166c5.016-14.029 7.915-30.214 7.915-47.076 0-37.655-14.457-71.933-38.122-97.587l0.090 0.099c-22.499-21.463-51.311-36.492-83.373-42.028l-0.957-0.137 60.235 60.235c3.761 4.971 6.024 11.256 6.024 18.071s-2.263 13.1-6.078 18.146l0.055-0.076-108.424 108.424c-5.288 5.624-12.776 9.127-21.082 9.127s-15.795-3.503-21.068-9.112l-0.014-0.015-60.235-60.235c2.11 30.854 15.537 58.218 36.116 78.281l0.025 0.025c24.696 24.987 58.565 40.863 96.136 42.158l0.24 0.007c2.832 0.237 6.129 0.372 9.458 0.372 13.863 0 27.18-2.342 39.576-6.651l-0.846 0.256c3.182-1.459 6.903-2.31 10.823-2.31 7.599 0 14.45 3.198 19.283 8.321l0.012 0.013 373.459 373.459c12.047 24.094 12.047 36.141 6.024 42.165-8.572 17.627-13.583 38.346-13.583 60.235s5.011 42.608 13.949 61.072l-0.365-0.837c16.913 37.809 46.52 67.417 83.289 83.912l1.041 0.417c15.943 6.509 34.405 10.823 53.71 12.022l0.502 0.025-72.282-72.282c-5.624-5.288-9.127-12.776-9.127-21.082s3.503-15.795 9.112-21.068l0.015-0.014 120.471-120.471c4.971-3.761 11.256-6.024 18.071-6.024s13.1 2.263 18.146 6.078l-0.076-0.055 78.306 78.306c-0.724-40.953-19.185-77.453-48.007-102.247l-0.181-0.153z" />
<glyph unicode="&#xe925;" glyph-name="id-signal" d="M215.040 864.828c-33.307-39.008-53.582-90.018-53.609-145.764v-0.006c0.914-52.719 21.095-100.555 53.78-136.928l-0.171 0.194 47.586 35.539c-22.52 27.31-36.176 62.658-36.176 101.195s13.657 73.886 36.395 101.468l-0.218-0.273zM173.478 906.391l-47.586 41.562c-51.676-59.516-83.169-137.764-83.169-223.368 0-1.943 0.016-3.882 0.049-5.818l-0.004 0.291c1.225-85.267 32.445-163.013 83.552-223.388l-0.427 0.518 47.586 42.165c-43.281 47.715-70.24 110.929-71.675 180.415l-0.005 0.29c-0.118 2.901-0.185 6.306-0.185 9.726 0 69.053 27.404 131.705 71.931 177.674l-0.066-0.068zM898.108 947.953l-47.586-41.562c44.461-48.882 71.685-114.133 71.685-185.742 0-0.559-0.002-1.117-0.005-1.675v0.085c-1.44-69.777-28.399-132.991-71.888-180.938l0.208 0.232 47.586-41.562c54.58 58.005 88.366 136.117 89.147 222.113l0.001 0.155c0.060 2.305 0.094 5.019 0.094 7.74 0 85.941-34.022 163.935-89.333 221.248l0.091-0.095zM814.984 864.828l-47.586-41.562c22.108-27.463 35.486-62.767 35.486-101.195s-13.378-73.732-35.73-101.509l0.244 0.313 47.586-41.562c32.882 37.066 53.124 85.996 53.609 139.645l0.001 0.101c0.025 1.225 0.040 2.668 0.040 4.115 0 54.439-20.343 104.126-53.841 141.875l0.192-0.221zM702.344 710.024c0.005 0.514 0.008 1.121 0.008 1.729 0 103.46-83.871 187.332-187.332 187.332s-187.332-83.871-187.332-187.332c0-94.108 69.393-172.008 159.801-185.323l1.019-0.123v-511.398h-130.711v-65.054h314.428v65.054h-124.687v505.374c88.831 17.818 154.813 95.2 154.813 187.993 0 0.615-0.003 1.229-0.009 1.842l0.001-0.094zM512 585.336c-0.178-0.001-0.39-0.001-0.601-0.001-69.195 0-125.289 56.094-125.289 125.289s56.094 125.289 125.289 125.289c69.195 0 125.289-56.094 125.289-125.289 0-0.211-0.001-0.422-0.002-0.633v0.033c-2.557-67.81-56.877-122.13-124.449-124.68l-0.238-0.007z" />
<glyph unicode="&#xe926;" glyph-name="id-starfull" d="M932.442 638.946l-216.847 49.995-113.242 188.536c-9.168 14.83-21.311 26.973-35.675 35.872l-0.466 0.269c-15.773 10.107-35.016 16.111-55.662 16.111-37.443 0-70.274-19.748-88.645-49.398l-0.257-0.446-113.242-190.946-215.642-49.995h-3.614c-16.349-4.256-30.521-11.981-42.272-22.381l0.108 0.093c-22.331-19.119-36.393-47.34-36.393-78.845 0-26.14 9.681-50.019 25.653-68.248l-0.102 0.119 144.565-168.056-18.071-222.268c-0.306-0.616-0.486-1.341-0.486-2.108s0.179-1.493 0.498-2.136l-0.013 0.028c-0.43-3.166-0.676-6.825-0.676-10.541s0.246-7.375 0.722-10.962l-0.046 0.42c1.433-8.826 3.739-16.723 6.884-24.181l-0.258 0.689c16.392-37.357 53.056-62.976 95.703-62.976 14.598 0 28.494 3.002 41.106 8.421l-0.678-0.259 204.8 86.739 196.969-83.727c14.063-7.485 30.753-11.88 48.469-11.88 57.885 0 104.809 46.925 104.809 104.809 0 2.697-0.102 5.37-0.302 8.016l0.021-0.352-16.866 222.268 141.553 164.442c12.267 12.808 21.156 28.947 25.174 46.923l0.124 0.662c1.754 7.157 2.76 15.373 2.76 23.823 0 49.13-33.999 90.319-79.753 101.322l-0.711 0.144z" />
<glyph unicode="&#xe927;" glyph-name="id-starempty" d="M1003.52 598.588c-15.434 24.721-39.827 42.622-68.532 49.249l-0.739 0.144-211.426 47.586-112.64 186.729c-19.567 33.159-55.114 55.054-95.774 55.054s-76.207-21.895-95.492-54.538l-0.282-0.516-117.459-186.729-212.028-49.393h-1.807c-48.495-12.78-83.674-56.242-83.674-107.922 0-27.886 10.243-53.38 27.172-72.924l-0.118 0.14 143.36-168.056-19.275-219.256v-4.819c-0.286-3.337-0.449-7.221-0.449-11.144s0.163-7.806 0.483-11.646l-0.034 0.502c2.010-9.895 4.712-18.564 8.178-26.835l-0.347 0.934c11.607-27.317 32.918-48.628 59.503-59.958l0.732-0.277c12.63-5.428 27.33-8.584 42.767-8.584s30.138 3.156 43.491 8.858l-0.724-0.275 201.788 85.534 193.355-81.92c15.199-7.973 33.206-12.652 52.305-12.652 0.247 0 0.494 0.001 0.74 0.002h8.997c57.51 5.562 102.106 53.646 102.106 112.146 0 2.929-0.112 5.833-0.331 8.706l0.023-0.382-18.071 221.064 140.951 161.431c13.161 14.079 22.837 31.58 27.548 51.020l0.16 0.782c2.263 8.319 3.564 17.87 3.564 27.725 0 22.415-6.727 43.259-18.272 60.622l0.252-0.403zM783.059 307.049l20.48-233.111c0.064-0.939 0.101-2.034 0.101-3.138 0-25.71-19.886-46.776-45.116-48.654l-0.162-0.010c-1.035-0.079-2.241-0.124-3.458-0.124-8.208 0-15.937 2.052-22.702 5.672l0.258-0.126h-4.819l-203.595 89.148c-1.901 0.41-4.086 0.645-6.325 0.645s-4.423-0.235-6.529-0.682l0.205 0.036c-1.809 0.244-3.9 0.383-6.024 0.383s-4.215-0.139-6.265-0.409l0.241 0.026-211.426-89.751h-4.216c-4.933-1.84-10.633-2.904-16.582-2.904-19.003 0-35.469 10.864-43.525 26.721l-0.128 0.278c0.222 0.535 0.352 1.156 0.352 1.807s-0.129 1.272-0.363 1.839l0.012-0.032c-0.131 1.444-0.205 3.123-0.205 4.819s0.075 3.375 0.221 5.034l-0.015-0.215c-0.288 1.81-0.452 3.898-0.452 6.024s0.164 4.213 0.481 6.25l-0.029-0.227v3.614l17.468 227.087c0.082 0.842 0.129 1.82 0.129 2.809 0 8.565-3.506 16.312-9.16 21.884l-0.004 0.004-153.6 174.682c-7.687 8.422-12.395 19.677-12.395 32.032 0 22.343 15.399 41.090 36.163 46.206l0.327 0.068 228.894 52.405c8.918 2.125 16.21 7.841 20.398 15.498l0.082 0.163 120.471 198.174c3.879 6.86 9.404 12.385 16.054 16.154l0.209 0.109c6.811 4.544 15.184 7.251 24.189 7.251 4.476 0 8.796-0.669 12.866-1.912l-0.311 0.082c13.191-3.26 24.035-11.547 30.596-22.662l0.124-0.227 120.471-198.174c4.316-7.265 11.352-12.529 19.672-14.417l0.206-0.039 226.485-52.405c4.558-1.067 8.578-2.726 12.238-4.925l-0.191 0.106c11.223-5.947 19.639-15.933 23.401-27.973l0.091-0.337c1.308-4.254 2.062-9.143 2.062-14.209 0-8.457-2.1-16.424-5.807-23.408l0.131 0.271c-2.17-3.933-4.774-7.306-7.816-10.226l-0.014-0.014-150.588-174.080c-7.387-5.212-12.381-13.391-13.243-22.767l-0.009-0.123z" />
<glyph unicode="&#xe928;" glyph-name="id-states" d="M447.548 273.318l-233.111 233.111-58.428-58.428 303.586-291.539 390.927 519.228 17.468 17.468-70.475 46.381-349.967-466.221zM883.652 938.918h-743.304c-66.534 0-120.471-53.937-120.471-120.471v0-742.099c0-66.534 53.937-120.471 120.471-120.471v0h743.304c66.534 0 120.471 53.937 120.471 120.471v0 743.304c-0.681 66.014-54.354 119.266-120.465 119.266-0.002 0-0.004 0-0.006 0v0zM943.887 76.348c0-33.267-26.968-60.235-60.235-60.235v0h-743.304c-33.267 0-60.235 26.968-60.235 60.235v0 743.304c0 33.267 26.968 60.235 60.235 60.235v0h743.304c33.267 0 60.235-26.968 60.235-60.235v0z" />
<glyph unicode="&#xe929;" glyph-name="id-suscribesignals" d="M1013.158 56.471v440.922c0.279 1.358 0.438 2.919 0.438 4.518s-0.16 3.159-0.464 4.668l0.025-0.15c-10.562 38.607-44.965 66.652-86.045 67.462l-0.091 0.001c-3.166 0.44-6.824 0.691-10.541 0.691s-7.375-0.251-10.958-0.738l0.417 0.046c-0.047 6.612-2.305 12.688-6.072 17.533l0.049-0.065c-19.077 24.362-47.862 40.367-80.434 42.152l-0.281 0.012c-18.462-0.308-35.822-4.721-51.303-12.362l0.705 0.315c-14.874 12.074-33.942 19.51-54.733 19.877l-0.081 0.001c-2.531 0.299-5.462 0.47-8.433 0.47s-5.902-0.171-8.784-0.503l0.351 0.033v160.828c0.158 1.535 0.248 3.317 0.248 5.12s-0.090 3.585-0.266 5.342l0.018-0.222c-12.393 38.773-48.107 66.357-90.263 66.357-1.515 0-3.021-0.036-4.518-0.106l0.212 0.008c-42.229-4.164-76.887-32.559-90.129-70.935l-0.224-0.745c-0.407-1.719-0.64-3.694-0.64-5.722s0.233-4.003 0.674-5.897l-0.034 0.175v-386.108l-64.452 68.668c-3.606 3.584-7.779 6.603-12.372 8.909l-0.277 0.126c-12.285 5.138-26.559 8.123-41.531 8.123-21.915 0-42.337-6.395-59.5-17.422l0.438 0.263c-22.274-20.145-36.21-49.152-36.21-81.413 0-9.159 1.123-18.056 3.239-26.56l-0.159 0.754c0.769-4.564 2.462-8.627 4.885-12.149l-0.066 0.102 236.122-347.558c29.121-30.976 67.873-52.596 111.458-60.068l1.182-0.168h248.772c1.992-0.41 4.282-0.645 6.626-0.645s4.634 0.235 6.846 0.683l-0.22-0.037c16.264 7.228 96.376 45.176 96.376 105.412zM896.904 14.908h-240.941c-23.7 8.066-43.901 21.085-60.197 37.909l-0.038 0.040-227.689 337.318c0 10.842 0 27.106 7.228 32.527 5.402 3.135 11.886 4.986 18.803 4.986 3.598 0 7.079-0.501 10.378-1.436l-0.267 0.065 114.447-128.904c6.206-6.948 15.191-11.301 25.193-11.301 4.371 0 8.548 0.831 12.382 2.345l-0.229-0.080c12.766 4.796 21.686 16.902 21.686 31.090 0 0.082 0 0.163-0.001 0.245v-0.012 468.028c4.216 7.831 14.456 23.492 27.708 23.492 9.957-0.748 18.318-6.895 22.219-15.495l0.068-0.166v-402.372c0-18.63 15.102-33.732 33.732-33.732s33.732 15.102 33.732 33.732v0 171.671c4.642 3.185 10.381 5.087 16.565 5.087s11.923-1.902 16.665-5.152l-0.101 0.065v-175.285c0-18.63 15.102-33.732 33.732-33.732s33.732 15.102 33.732 33.732v168.056c6.343 2.995 13.731 4.944 21.517 5.413l0.167 0.008c7.951-0.779 15.015-4.072 20.509-9.062l-0.029 0.026v-172.273c-0.574-2.329-0.904-5.004-0.904-7.755 0-18.63 15.102-33.732 33.732-33.732s33.732 15.102 33.732 33.732c0 2.751-0.329 5.425-0.951 7.986l0.047-0.231v109.628c2.805 8.571 10.581 14.716 19.839 15.058l0.039 0.001c9.157-0.248 16.877-6.136 19.83-14.305l0.048-0.151v-435.501c2.409-7.831-21.082-27.708-46.381-39.755zM213.233 614.249c74.682 19.922 129.251 85.758 131.908 164.753l0.008 0.292c-1.337 94.268-77.402 170.333-171.543 171.669l-0.127 0.001c-91.657-2.346-165.063-77.205-165.063-169.209 0-0.866 0.006-1.73 0.019-2.592l-0.002 0.13c0.022-80.222 55.85-147.399 130.773-164.821l1.143-0.224c10.97-2.504 23.627-4.031 36.609-4.215l0.135-0.002c12.913 0.203 25.359 1.729 37.351 4.447l-1.21-0.231zM173.478 680.508c-54.022 1.312-97.474 44.764-98.784 98.662l-0.002 0.124c0.985 54.28 44.558 98.065 98.662 99.386l0.124 0.002c54.355-1.312 98.076-45.034 99.386-99.265l0.002-0.123c-1.636-54.097-45.237-97.487-99.266-98.784l-0.123-0.002zM135.529 632.922h82.522v-209.619h-82.522v209.619z" />
<glyph unicode="&#xe92a;" glyph-name="id-synoptic" d="M530.071 351.624c23.287 0 42.165 18.878 42.165 42.165s-18.878 42.165-42.165 42.165v0l-108.424 84.329-18.071-24.094 84.329-102.4c-0.012-0.364-0.018-0.793-0.018-1.223 0-22.622 18.338-40.96 40.96-40.96 0.43 0 0.859 0.007 1.285 0.020l-0.062-0.002zM512 941.929c-0.179 0-0.391 0-0.603 0-279.11 0-505.374-226.264-505.374-505.374 0-0.212 0-0.424 0-0.636v0.034c1.937-102.445 30.785-197.757 79.737-279.667l-1.432 2.585 6.024-6.024h66.259l84.329 78.306-42.165 48.188-78.306-72.282c-37.881 64.472-60.254 142.007-60.254 224.768 0 1.451 0.007 2.9 0.021 4.347l-0.002-0.221v12.047h102.4v60.235h-96.376c14.176 81.185 48.241 152.677 96.984 211.579l-0.607-0.755 66.259-60.235 42.165 42.165-66.259 66.259c70.671 65.013 161.892 108.689 262.873 120.269l2.162 0.202v-114.447h60.235v114.447c114.888-6.368 217.714-53.355 295.378-126.705l-0.225 0.21-72.282-72.282 42.165-42.165 72.282 72.282c45.218-56.869 77.154-126.27 89.985-202.166l0.368-2.634h-96.376v-60.235h102.4v-12.047c-2.35-84.116-24.369-162.586-61.593-231.651l1.358 2.757-78.306 78.306-42.165-48.188 84.329-84.329h66.259l6.024 6.024c49.166 75.533 78.404 167.956 78.404 267.207 0 3.472-0.036 6.936-0.107 10.391l0.008-0.516c-2.386 276.627-227.188 499.956-504.152 499.956-0.642 0-1.283-0.001-1.924-0.004h0.099zM283.106 74.541h457.788v-66.259h-457.788v66.259z" />
<glyph unicode="&#xe92b;" glyph-name="id-user" d="M677.045 444.988c67.526 50.575 111.029 130.034 112.036 219.697l0.001 0.161c-1.681 152.347-124.735 275.401-276.922 277.081l-0.16 0.001c-152.347-1.681-275.401-124.735-277.081-276.922l-0.001-0.16c1.1-89.365 44.063-168.472 110.148-218.756l0.685-0.5c-130.408-30.684-237.392-113.238-299.976-224.17l-1.201-2.315v-259.012h925.214v259.012c-60.615 112.609-164.947 195.062-289.686 225.257l-3.057 0.625zM295.153 664.847c0 119.761 97.086 216.847 216.847 216.847s216.847-97.086 216.847-216.847v0c-1.506-102.187-72.497-187.376-167.758-210.515l-1.503-0.309h-96.979c-96.589 22.474-167.457 107.816-167.457 209.709 0 0.392 0.001 0.783 0.003 1.174v-0.060zM909.553 26.353h-801.129v168.659c64.301 109.344 179.768 182.568 312.644 186.715l0.579 0.014h174.682c133.455-4.161 248.922-77.385 312.267-184.973l0.956-1.757z" />
<glyph unicode="&#xe92c;" glyph-name="id-alarmgroups" d="M465.619 816.038l-122.278 122.278h-320.452v-319.849h57.826v262.024h238.532l122.278-122.278h559.586v57.826h-535.492zM128.904 7.078h766.193l-385.506 671.021zM815.586 53.459h-607.172l301.176 531.275z" />
<glyph unicode="&#xe92d;" glyph-name="id-bpmgroups" d="M831.247 417.882h-216.847c-0.364 0.012-0.793 0.018-1.223 0.018-22.622 0-40.96-18.338-40.96-40.96 0-0.43 0.007-0.859 0.020-1.285l-0.002 0.062v-18.071h-36.141v216.847h36.141v-18.071c-0.032-0.604-0.051-1.311-0.051-2.023 0-20.822 15.768-37.96 36.015-40.127l0.177-0.015h216.847c0.364-0.012 0.793-0.018 1.223-0.018 22.622 0 40.96 18.338 40.96 40.96 0 0.43-0.007 0.859-0.020 1.285l0.002-0.062v90.353c0.012 0.364 0.018 0.793 0.018 1.223 0 22.622-18.338 40.96-40.96 40.96-0.43 0-0.859-0.007-1.285-0.020l0.062 0.002h-216.847c-0.364 0.012-0.793 0.018-1.223 0.018-22.622 0-40.96-18.338-40.96-40.96 0-0.43 0.007-0.859 0.020-1.285l-0.002 0.062v-18.071h-60.235c-13.728-1.792-24.219-13.415-24.219-27.488 0-0.926 0.045-1.842 0.134-2.744l-0.009 0.114v-240.941h-36.141v18.071c0.012 0.364 0.018 0.793 0.018 1.223 0 22.622-18.338 40.96-40.96 40.96-0.43 0-0.859-0.007-1.285-0.020l0.062 0.002h-210.824c-0.364 0.012-0.793 0.018-1.223 0.018-22.622 0-40.96-18.338-40.96-40.96 0-0.43 0.007-0.859 0.020-1.285l-0.002 0.062v-90.353c-0.012-0.364-0.018-0.793-0.018-1.223 0-22.622 18.338-40.96 40.96-40.96 0.43 0 0.859 0.007 1.285 0.020l-0.062-0.002h216.847c0.364-0.012 0.793-0.018 1.223-0.018 22.622 0 40.96 18.338 40.96 40.96 0 0.43-0.007 0.859-0.020 1.285l0.002-0.062v24.094h30.118v-252.988c0.627-13.047 11.047-23.468 24.036-24.092l0.058-0.002h60.235v-18.071c-0.012-0.364-0.018-0.793-0.018-1.223 0-22.622 18.338-40.96 40.96-40.96 0.43 0 0.859 0.007 1.285 0.020l-0.062-0.002h216.847c0.364-0.012 0.793-0.018 1.223-0.018 22.622 0 40.96 18.338 40.96 40.96 0 0.43-0.007 0.859-0.020 1.285l0.002-0.062v90.353c0.012 0.364 0.018 0.793 0.018 1.223 0 22.622-18.338 40.96-40.96 40.96-0.43 0-0.859-0.007-1.285-0.020l0.062 0.002h-216.847c-0.364 0.012-0.793 0.018-1.223 0.018-22.622 0-40.96-18.338-40.96-40.96 0-0.43 0.007-0.859 0.020-1.285l-0.002 0.062v-18.071h-30.118v210.824h36.141v-18.071c1.511-22.653 19.511-40.654 42.028-42.157l0.137-0.007h216.847c0.364-0.012 0.793-0.018 1.223-0.018 22.622 0 40.96 18.338 40.96 40.96 0 0.43-0.007 0.859-0.020 1.285l0.002-0.062v96.376c0.012 0.364 0.018 0.793 0.018 1.223 0 22.622-18.338 40.96-40.96 40.96-0.43 0-0.859-0.007-1.285-0.020l0.062 0.002zM620.424 634.729h186.729v-66.259h-186.729zM385.506 297.412h-186.729v66.259h186.729zM620.424 92.612h186.729v-66.259h-186.729zM807.153 297.412h-186.729v66.259h186.729zM465.619 816.038l-122.278 122.278h-320.452v-319.849h57.826v262.024h238.532l122.278-122.278h559.586v57.826h-535.492z" />
<glyph unicode="&#xe92e;" glyph-name="id-accessgroups" d="M849.318 563.049c25.436 16.352 42.069 44.473 42.165 76.484v0.014c0 0.091 0.001 0.199 0.001 0.307 0 49.901-40.452 90.353-90.353 90.353s-90.353-40.452-90.353-90.353c0-32.28 16.927-60.606 42.39-76.586l0.377-0.221c-32.021-8.811-57.729-30.774-71.393-59.563l-0.287-0.672c-28.258 30.311-65.642 51.781-107.761 60.029l-1.265 0.206c49.14 23.265 82.522 72.448 82.522 129.427 0 78.843-63.915 142.758-142.758 142.758s-142.758-63.915-142.758-142.758c0-56.98 33.382-106.162 81.656-129.058l0.866-0.37c-43.384-8.454-80.768-29.924-108.916-60.117l-0.109-0.119c-14.006 29.633-39.979 51.662-71.513 60.061l-0.77 0.174c25.839 16.2 42.767 44.527 42.767 76.806 0 49.901-40.452 90.353-90.353 90.353s-90.353-40.452-90.353-90.353c0-32.28 16.928-60.606 42.39-76.586l0.377-0.221c-48.585-12.038-84.075-55.147-84.329-106.588v-180.735c0-26.614 21.575-48.188 48.188-48.188v0h150.588c3.871-28.901 27.767-51.139 57.099-52.4l0.125-0.004h328.885c29.457 1.265 53.353 23.503 57.19 52.096l0.034 0.309h148.781c27.612 0 49.995 22.384 49.995 49.995v0 180.706c-0.963 50.416-35.629 92.473-82.358 104.64l-0.766 0.169zM222.268 680.508c22.361-0.339 40.358-18.546 40.358-40.956 0-22.622-18.338-40.96-40.96-40.96-22.62 0-40.957 18.336-40.96 40.955v0c0 0.001 0 0.003 0 0.004 0 22.622 18.338 40.96 40.96 40.96 0.212 0 0.423-0.002 0.634-0.005h-0.032zM301.176 439.567c-10.243-33.89-16.14-72.838-16.14-113.163 0-17.011 1.049-33.777 3.087-50.237l-0.199 1.969h-146.974v180.706c0 33.267 26.968 60.235 60.235 60.235v0h39.755c33.267 0 60.235-26.968 60.235-60.235v0zM421.647 691.953c0.028 51.543 41.818 93.316 93.365 93.316 51.564 0 93.365-41.801 93.365-93.365s-41.801-93.365-93.365-93.365c-1.059 0-2.114 0.018-3.165 0.053l0.153-0.004c-50.252 1.673-90.353 42.811-90.353 93.316 0 0.017 0 0.034 0 0.051v-0.003zM687.285 233.562c0-4.325-3.506-7.831-7.831-7.831v0h-331.896c-4.325 0-7.831 3.506-7.831 7.831v0 134.927c0 82.502 66.881 149.384 149.384 149.384v0h45.779c82.502 0 149.384-66.881 149.384-149.384v0zM801.129 680.508c22.622 0 40.96-18.338 40.96-40.96s-18.338-40.96-40.96-40.96c-22.622 0-40.96 18.338-40.96 40.96v0c-0.003 0.18-0.005 0.394-0.005 0.607 0 22.289 18.069 40.358 40.358 40.358 0.213 0 0.426-0.002 0.639-0.005h-0.032zM733.666 278.136c2.336 16.3 3.67 35.125 3.67 54.26 0 38.14-5.298 75.041-15.199 110.010l0.687-2.84v16.866c0 33.267 26.968 60.235 60.235 60.235v0h37.948c33.267 0 60.235-26.968 60.235-60.235v0-180.706c-14.887-0.543-32.374-0.852-49.934-0.852-34.356 0-68.435 1.184-102.199 3.514l4.557-0.252zM307.2 104.659h409.6v-60.235h-409.6v60.235z" />
<glyph unicode="&#xe92f;" glyph-name="id-synopticgroups" d="M524.047 213.082c0.364-0.012 0.793-0.018 1.223-0.018 22.622 0 40.96 18.338 40.96 40.96 0 0.43-0.007 0.859-0.020 1.285l0.002-0.062c-1.006 20.883-16.047 37.98-35.848 42.113l-0.294 0.051-84.329 60.235-24.094-30.118 60.235-78.306c5.949-19.045 22.090-33.173 41.882-36.107l0.283-0.034zM512 658.824c-205.844-1.020-372.438-167.615-373.458-373.361v-0.098c0.254-76.074 22.678-146.86 61.143-206.297l-0.907 1.497 6.024-6.024h54.212l72.282 66.259-42.165 48.188-54.212-48.188c-22.778 43.384-36.144 94.786-36.144 149.311 0 0.449 0.001 0.898 0.003 1.347v-0.069h72.282v60.235h-66.259c9.347 48.882 30.567 91.73 60.551 126.874l-0.316-0.38 48.188-42.165 36.141 42.165-48.188 42.165c45.234 41.239 103.046 69.404 167.045 78.126l1.614 0.18v-78.306h60.235v78.306c74.26-4.473 141.024-33.354 193.149-78.643l-0.396 0.337-54.212-54.212 42.165-42.165 48.188 48.188c26.482-35.574 45.522-78.265 53.935-124.657l0.276-1.837h-66.259v-60.235h72.282c-1.275-54.988-14.475-106.597-37.097-152.747l0.956 2.159-54.212 54.212-42.165-48.188 66.259-72.282h54.212l6.024 6.024c37.233 58.049 59.593 128.749 60.234 204.629l0.001 0.171c0.288 5.397 0.452 11.715 0.452 18.071 0 199.602-161.81 361.412-361.412 361.412-0.159 0-0.318 0-0.477 0h0.025zM337.318 32.376h349.365v-66.259h-349.365v66.259zM465.619 816.038l-122.278 122.278h-320.452v-319.849h57.826v262.024h238.532l122.278-122.278h559.586v57.826h-535.492z" />
<glyph unicode="&#xe930;" glyph-name="id-chartgroups" d="M465.619 816.038l-122.278 122.278h-320.452v-319.849h57.826v262.024h238.532l122.278-122.278h559.586v57.826h-535.492zM380.687 80.565v261.421h-174.682v-261.421h43.369v218.052h87.341v-218.052h43.972zM162.635 37.195h740.894v-43.369h-740.894v43.369zM598.136 80.565v392.734h-174.080v-392.734h43.369v348.762h87.341v-348.762h43.369zM816.188 80.565v566.814h-174.080v-566.814h43.369v523.445h87.341v-523.445h43.369z" />
<glyph unicode="&#xe931;" glyph-name="id-signalgroups" d="M465.619 816.038l-122.278 122.278h-320.452v-319.849h57.826v262.024h238.532l122.278-122.278h559.586v57.826h-535.492zM273.468 650.391l-32.527 28.311c-36.89-40.657-59.659-94.716-60.234-154.085l-0.001-0.117c0.333-59.523 23.156-113.652 60.395-154.379l-0.159 0.177 33.129 27.708c-30.565 33.060-49.311 77.437-49.311 126.193s18.746 93.133 49.425 126.317l-0.114-0.124zM750.532 650.391c30.565-33.060 49.311-77.437 49.311-126.193s-18.746-93.133-49.425-126.317l0.114 0.124 32.527-28.311c37.020 40.803 59.817 95.102 60.235 154.72v0.085c-0.576 59.486-23.345 113.545-60.409 154.397l0.174-0.194zM645.12 514.259c0 73.52-59.6 133.12-133.12 133.12s-133.12-59.6-133.12-133.12v0c1.11-64.145 48.472-116.901 110.106-126.402l0.727-0.092v-345.751h-88.546v-45.779h221.666v42.767h-88.546v348.762c62.362 9.593 109.723 62.349 110.831 126.379l0.002 0.115zM512 428.122c-45.722 2.31-81.92 39.944-81.92 86.033 0 47.572 38.565 86.136 86.136 86.136 47.536 0 86.078-38.506 86.136-86.028v-0.006c-0.65-47.739-39.502-86.189-87.334-86.189-1.062 0-2.119 0.019-3.172 0.057l0.152-0.004z" />
<glyph unicode="&#xe932;" glyph-name="id-securitygroups" d="M465.619 816.038l-122.278 122.278h-320.452v-319.849h57.826v262.024h238.532l122.278-122.278h559.586v57.826h-535.492zM714.993 382.946v80.715c0 111.445-90.344 201.788-201.788 201.788s-201.788-90.344-201.788-201.788v0-80.715c-33.267 0-60.235-26.968-60.235-60.235v0-286.72c0-33.267 26.968-60.235 60.235-60.235v0h403.576c33.267 0 60.235 26.968 60.235 60.235v0 286.118c0.002 0.179 0.003 0.391 0.003 0.602 0 33.267-26.968 60.235-60.235 60.235-0.001 0-0.002 0-0.003 0v0zM353.581 463.661c0 89.156 72.275 161.431 161.431 161.431s161.431-72.275 161.431-161.431v-80.715h-324.668zM736.075 35.388c-0.335-11.049-9.372-19.878-20.471-19.878-0.003 0-0.006 0-0.009 0h-405.383c-0.003 0-0.006 0-0.009 0-11.099 0-20.136 8.829-20.47 19.847l-0.001 0.031v286.72c0 11.311 9.169 20.48 20.48 20.48v0h404.781c10.662-0.941 18.998-9.695 19.275-20.453l0.001-0.027z" />
<glyph unicode="&#xe933;" glyph-name="id-reportgroups" d="M730.052 527.511h51.2v-508.386h-520.433v508.386h49.995v39.153h-89.751v-586.692h599.944v586.692h-90.955v-39.153zM577.656 605.816c-8.65 23.346-30.728 39.685-56.621 39.685s-47.971-16.338-56.486-39.268l-0.136-0.417h-120.471v-156.612h361.412v156.612zM661.384 485.346h-280.094v81.318h120.471v19.878c0 0.003 0 0.006 0 0.009 0 10.645 8.63 19.275 19.275 19.275 0.212 0 0.423-0.003 0.633-0.010l-0.031 0.001c0.36 0.024 0.781 0.038 1.205 0.038 10.645 0 19.275-8.63 19.275-19.275 0-0.013 0-0.027 0-0.040v0.002-19.878h120.471zM465.619 816.038l-122.278 122.278h-320.452v-319.849h57.826v262.024h238.532l122.278-122.278h559.586v57.826h-535.492z" />
<glyph unicode="&#xe934;" glyph-name="id-mapgroups" d="M465.619 816.038l-122.278 122.278h-320.452v-319.849h57.826v262.024h238.532l122.278-122.278h559.586v57.826h-535.492zM512 658.824c-131.505-2.036-237.327-109.117-237.327-240.914 0-0.010 0-0.019 0-0.029v0.002c0-189.139 212.028-436.104 221.064-446.344l16.264-18.673 16.264 18.673c9.035 10.24 221.064 257.205 221.064 446.344 0 0.008 0 0.018 0 0.027 0 131.797-105.823 238.879-237.136 240.912l-0.191 0.002zM512 22.739c-49.393 60.235-193.958 254.193-193.958 398.155 0 107.12 86.838 193.958 193.958 193.958s193.958-86.838 193.958-193.958v0c0-141.553-144.565-334.306-193.958-395.746z" />
<glyph unicode="&#xe935;" glyph-name="id-machinelearning" d="M893.289 715.445c0.178-0.001 0.39-0.002 0.601-0.002 63.207 0 114.447 51.24 114.447 114.447s-51.24 114.447-114.447 114.447c-63.207 0-114.447-51.24-114.447-114.447 0-0.211 0.001-0.422 0.002-0.633v0.032c-0.001-0.143-0.001-0.312-0.001-0.481 0-17.818 4.228-34.649 11.735-49.544l-0.289 0.632-166.249-165.647c-24.021 16.935-53.895 27.068-86.136 27.068s-62.116-10.132-86.613-27.386l0.477 0.318-127.699 127.699c5.315 9.572 8.443 20.992 8.443 33.143 0 0.419-0.004 0.837-0.011 1.254l0.001-0.063c0 43.247-35.059 78.306-78.306 78.306s-78.306-35.059-78.306-78.306c0-43.247 35.059-78.306 78.306-78.306v0c0.264-0.003 0.576-0.005 0.889-0.005 12.185 0 23.694 2.894 33.877 8.033l-0.431-0.197 127.699-127.096c-17.345-23.889-27.746-53.798-27.746-86.136s10.402-62.248 28.042-86.564l-0.296 0.428-215.040-215.642c-19.292 15.522-44.088 24.914-71.077 24.914-62.875 0-113.845-50.97-113.845-113.845s50.97-113.845 113.845-113.845c62.875 0 113.845 50.97 113.845 113.845 0 0.135 0 0.271-0.001 0.406v-0.021c0.003 0.301 0.005 0.657 0.005 1.012 0 17.435-4.233 33.88-11.726 48.366l0.277-0.588 219.256 219.256c17.123-11.949 37.366-20.77 59.218-25.129l1.018-0.169v-168.056c-51.045-11.698-88.546-56.728-88.546-110.517 0-0.111 0-0.222 0-0.334v0.017c0-62.875 50.97-113.845 113.845-113.845s113.845 50.97 113.845 113.845v0c0.001 0.134 0.001 0.293 0.001 0.452 0 53.572-37.2 98.455-87.177 110.228l-0.768 0.152v168.056c22.87 4.529 43.113 13.35 60.757 25.643l-0.521-0.344 127.699-127.096c-5.174-10.182-8.271-22.179-8.432-34.883l-0.001-0.053c-0.002-0.194-0.003-0.423-0.003-0.652 0-43.912 35.598-79.511 79.511-79.511s79.511 35.598 79.511 79.511c0 43.912-35.598 79.511-79.511 79.511-12.953 0-25.182-3.097-35.988-8.592l0.452 0.208-124.687 127.699c16.935 24.021 27.068 53.895 27.068 86.136s-10.132 62.116-27.386 86.613l0.318-0.477 161.431 162.033c18.793-15.294 42.877-24.745 69.15-25.297l0.121-0.002zM794.504 208.264c-0.004 0.177-0.006 0.386-0.006 0.596 0 15.636 12.675 28.311 28.311 28.311s28.311-12.675 28.311-28.311c0-15.636-12.675-28.311-28.311-28.311-0.21 0-0.419 0.002-0.627 0.007l0.031-0.001c-15.168 0.33-27.379 12.54-27.708 27.677l-0.001 0.031zM192.151 102.249c0.002-0.178 0.003-0.389 0.003-0.6 0-35.263-28.586-63.849-63.849-63.849s-63.849 28.586-63.849 63.849c0 35.263 28.586 63.849 63.849 63.849 0.211 0 0.421-0.001 0.632-0.003h-0.032c0.359 0.007 0.783 0.011 1.207 0.011 35.055 0 63.512-28.25 63.846-63.227v-0.032zM282.504 776.282c0-0.002 0-0.004 0-0.006 0-15.424-12.334-27.967-27.677-28.304l-0.031-0.001c-0.002 0-0.004 0-0.007 0-15.303 0-27.708 12.405-27.708 27.708 0 0.212 0.002 0.423 0.007 0.634l-0.001-0.031c-0.004 0.181-0.007 0.395-0.007 0.609 0 14.97 12.136 27.106 27.106 27.106 0.214 0 0.428-0.002 0.641-0.007l-0.032 0.001c15.303 0 27.708-12.405 27.708-27.708v0zM538.504 393.186c-0.179-0.001-0.391-0.002-0.602-0.002-54.891 0-99.388 44.498-99.388 99.388s44.498 99.388 99.388 99.388c54.89 0 99.387-44.497 99.388-99.386v0c0 0 0-0.001 0-0.002 0-54.679-44.155-99.045-98.753-99.386h-0.033zM602.353 66.711c0.192-1.857 0.301-4.013 0.301-6.194 0-35.263-28.586-63.849-63.849-63.849s-63.849 28.586-63.849 63.849c0 2.181 0.109 4.337 0.323 6.462l-0.022-0.268c3.261 32.496 30.466 57.655 63.548 57.655s60.287-25.159 63.526-57.387l0.022-0.268zM830.042 829.289c-0.002 0.178-0.003 0.389-0.003 0.6 0 35.263 28.586 63.849 63.849 63.849s63.849-28.586 63.849-63.849c0-35.263-28.586-63.849-63.849-63.849-0.211 0-0.421 0.001-0.632 0.003h0.032c-34.794 0.337-62.91 28.453-63.247 63.215v0.032z" />
<glyph unicode="&#xe936;" glyph-name="id-logout" d="M73.487 40.809v809.562c0 15.968 12.945 28.913 28.913 28.913v0h374.664v60.235h-374.664c-0.010 0-0.022 0-0.033 0-47.905 0-86.739-38.834-86.739-86.739 0-0.847 0.012-1.692 0.036-2.533l-0.003 0.124v-809.562c0.339-47.768 38.971-86.4 86.706-86.739h374.093v60.235h-374.061c-15.051 0.236-27.352 11.702-28.902 26.375l-0.011 0.128zM659.576 753.995l-42.165-42.767 219.256-219.256h-680.056v-60.235h680.056l-219.256-219.859 42.165-42.767 292.744 292.744-292.744 292.141z" />
<glyph unicode="&#xe937;" glyph-name="id-historicalgroups" d="M465.619 816.038l-122.278 122.278h-320.452v-319.849h57.826v262.024h238.532l122.278-122.278h559.586v57.826h-535.492zM512 658.824c-160.226 0-331.294-48.791-331.294-137.336-0.494-2.897-0.776-6.234-0.776-9.638s0.282-6.74 0.825-9.99l-0.049 0.352v-369.242c0-87.944 171.068-136.734 331.294-136.734s331.294 48.791 331.294 136.734v369.242h-3.012c1.911 5.617 3.014 12.086 3.014 18.814 0 0.162-0.001 0.324-0.002 0.486v-0.025c0 88.546-171.068 137.336-331.294 137.336zM803.539 134.174c0-45.779-124.687-96.979-291.539-96.979s-291.539 51.2-291.539 96.979v62.042l23.492-15.661c72.767-34.44 158.088-54.548 248.105-54.548 7.013 0 13.998 0.122 20.952 0.364l-1.010-0.028h39.755c84.3 1.066 163.705 20.956 234.544 55.645l-3.24-1.433c8.955 5.025 16.635 10.207 23.856 15.941l-0.365-0.279zM803.539 263.68c0-15.661-15.059-32.527-42.767-47.586-66.597-31.462-144.669-49.829-227.032-49.829-7.646 0-15.255 0.158-22.823 0.472l1.083-0.036h-37.346c-76.98 0.953-149.554 18.847-214.474 50.114l3.048-1.323c-27.708 15.059-42.767 31.925-42.767 47.586v62.645l23.492-15.661c72.767-34.44 158.088-54.548 248.105-54.548 7.013 0 13.998 0.122 20.952 0.364l-1.010-0.028c5.945-0.214 12.929-0.336 19.942-0.336 90.017 0 175.338 20.108 251.716 56.077l-3.611-1.529 23.492 15.661zM803.539 393.186c0-15.661-15.059-32.527-42.767-47.586-65.955-30.772-143.193-48.726-224.625-48.726-8.493 0-16.94 0.195-25.337 0.582l1.191-0.044c-6.485-0.278-14.094-0.436-21.74-0.436-82.363 0-160.435 18.367-230.345 51.229l3.314-1.4c-27.708 15.059-42.767 31.925-42.767 47.586v60.235l23.492-15.661c72.767-34.44 158.088-54.548 248.105-54.548 7.013 0 13.998 0.122 20.952 0.364l-1.010-0.028c6.421-0.25 13.961-0.392 21.534-0.392 90.567 0 176.38 20.354 253.114 56.737l-3.589-1.531 23.492 15.661zM760.772 475.106c-66.597-31.462-144.669-49.829-227.032-49.829-7.646 0-15.255 0.158-22.823 0.472l1.083-0.036c-6.485-0.278-14.094-0.436-21.74-0.436-82.363 0-160.435 18.367-230.345 51.229l3.314-1.4c-27.708 15.059-42.767 31.925-42.767 47.586 0 45.779 124.687 96.979 291.539 96.979s291.539-51.2 291.539-96.979c0-16.866-15.059-33.732-42.767-48.791z" />
<glyph unicode="&#xe938;" glyph-name="id-calculations" d="M978.221 473.299h-440.922v440.922c0 13.972-11.327 25.299-25.299 25.299s-25.299-11.327-25.299-25.299v-440.922h-440.922c-13.972 0-25.299-11.327-25.299-25.299s11.327-25.299 25.299-25.299h440.922v-440.922c0-13.972 11.327-25.299 25.299-25.299s25.299 11.327 25.299 25.299v440.922h440.922c13.972 0 25.299 11.327 25.299 25.299s-11.327 25.299-25.299 25.299v0zM99.388 691.351h120.471v-120.471c1.978-12.511 12.685-21.963 25.6-21.963s23.622 9.452 25.581 21.816l0.019 0.147v120.471h120.471c12.511 1.978 21.963 12.685 21.963 25.6s-9.452 23.622-21.816 25.581l-0.147 0.019h-120.471v120.471c-1.978 12.511-12.685 21.963-25.6 21.963s-23.622-9.452-25.581-21.816l-0.019-0.147v-120.471h-120.471c-12.511-1.978-21.963-12.685-21.963-25.6s9.452-23.622 21.816-25.581l0.147-0.019zM637.289 691.351h287.322c12.511 1.978 21.963 12.685 21.963 25.6s-9.452 23.622-21.816 25.581l-0.147 0.019h-287.322c-12.511-1.978-21.963-12.685-21.963-25.6s9.452-23.622 21.816-25.581l0.147-0.019zM924.612 204.649h-287.322c-12.511-1.978-21.963-12.685-21.963-25.6s9.452-23.622 21.816-25.581l0.147-0.019h287.322c12.511 1.978 21.963 12.685 21.963 25.6s-9.452 23.622-21.816 25.581l-0.147 0.019zM278.889 176.941l89.751 89.751c4.625 4.625 7.485 11.014 7.485 18.071 0 14.114-11.442 25.556-25.556 25.556-7.057 0-13.446-2.86-18.071-7.485v0l-91.558-87.944-87.944 89.751c-4.566 4.507-10.843 7.291-17.769 7.291s-13.203-2.784-17.772-7.294l0.003 0.003c-4.688-4.596-7.593-10.994-7.593-18.071s2.906-13.475 7.589-18.067l0.004-0.004 89.148-91.558-86.136-87.944c-4.691-4.391-7.664-10.567-7.83-17.438l-0.001-0.030c0.067-7.109 3.055-13.507 7.821-18.061l0.010-0.009c4.566-4.507 10.843-7.291 17.769-7.291s13.203 2.784 17.772 7.294l-0.003-0.003 84.932 89.148 89.751-89.148c4.521-4.844 10.943-7.863 18.071-7.863s13.55 3.019 18.057 7.848l0.013 0.014c4.471 4.469 7.236 10.644 7.236 17.465 0 0.213-0.003 0.425-0.008 0.637l0.001-0.031c0.001 0.077 0.001 0.169 0.001 0.26 0 6.739-2.767 12.831-7.226 17.204l-0.004 0.004zM834.861 286.569c0.002 0.178 0.003 0.388 0.003 0.599 0 29.94-24.271 54.212-54.212 54.212s-54.212-24.271-54.212-54.212c0-29.94 24.271-54.212 54.212-54.212 0.211 0 0.421 0.001 0.631 0.004h-0.032c29.608 0 53.609 24.002 53.609 53.609v0zM763.181 286.569c0 9.98 8.090 18.071 18.071 18.071v0c9.98 0 18.071-8.090 18.071-18.071s-8.090-18.071-18.071-18.071v0c-9.98 0-18.071 8.090-18.071 18.071v0zM783.059 125.139c-0.178 0.002-0.388 0.003-0.599 0.003-29.94 0-54.212-24.271-54.212-54.212s24.271-54.212 54.212-54.212c29.94 0 54.212 24.271 54.212 54.212 0 0.211-0.001 0.421-0.004 0.631v-0.032c0 29.608-24.002 53.609-53.609 53.609v0zM783.059 53.459c-0.988-0.192-2.124-0.301-3.285-0.301-9.98 0-18.071 8.090-18.071 18.071s8.090 18.071 18.071 18.071c1.162 0 2.298-0.11 3.398-0.319l-0.113 0.018c0.988 0.192 2.124 0.301 3.285 0.301 9.98 0 18.071-8.090 18.071-18.071s-8.090-18.071-18.071-18.071c-1.162 0-2.298 0.11-3.398 0.319l0.113-0.018z" />
<glyph unicode="&#xe939;" glyph-name="id-download-template" d="M481.882 51.652h-368.64v531.275h478.268v-134.927h53.609v134.927h265.638v-132.518h53.007v449.355h-903.529v-903.529h421.647zM113.242 635.934v212.631h797.515v-212.631zM775.831 63.096v253.591h-39.755v-253.591l-81.318 81.318-28.311-27.708 129.506-128.904 129.506 128.301-28.311 28.311-81.318-81.318zM927.021 398.005h-342.136c-24.357-0.34-43.972-20.164-43.972-44.57 0-0.001 0-0.003 0-0.004v0-165.647h39.153v165.647c0.525 2.288 2.445 4.003 4.798 4.215l0.021 0.002h342.136c2.542-0.278 4.541-2.277 4.817-4.795l0.002-0.024v-165.647h39.153v166.249c0.003 0.179 0.004 0.391 0.004 0.602 0 24.285-19.687 43.972-43.972 43.972-0.001 0-0.003 0-0.004 0v0z" />
</font>
</defs>
</svg>
