<svg id="Capa_1" data-name="Capa 1" xmlns="http://www.w3.org/2000/svg" viewBox="0 0 1304 402.32"><defs><style>.cls-1{fill:#2b2b2b;}</style></defs><title>LOGO IDbox 2020 hor</title><path class="cls-1" d="M455,286h28.1V482.7H455Z" transform="translate(-30 -180.68)"/><path class="cls-1" d="M547.71,286h82.9c63.23,0,106.23,39.91,106.23,98.36s-43,98.36-106.23,98.36h-82.9Zm81.22,172.26c48.61,0,79.8-29.79,79.8-73.91s-31.19-73.91-79.8-73.91H575.81V458.25Z" transform="translate(-30 -180.68)"/><path class="cls-1" d="M925.63,412.43c0,43-30,71.86-71.06,71.86-20.68,0-38.71-8-50.12-23.86V482.7H780.06V286h25.45v77.42c11.67-15.11,29.17-22.54,49.06-22.54C895.67,340.84,925.63,369.48,925.63,412.43Zm-25.72,0c0-30-20.42-49.32-47.46-49.32-26.78,0-47.2,19.36-47.2,49.32S825.66,462,852.45,462C879.5,462,899.91,442.4,899.91,412.43Z" transform="translate(-30 -180.68)"/><path class="cls-1" d="M953.21,412.43c0-41.9,31-71.59,73.18-71.59s72.92,29.7,72.92,71.59-30.76,71.86-72.92,71.86S953.21,454.33,953.21,412.43Zm120.38,0c0-30-20.15-49.32-47.2-49.32s-47.46,19.36-47.46,49.32S999.35,462,1026.39,462,1073.6,442.4,1073.6,412.43Z" transform="translate(-30 -180.68)"/><path class="cls-1" d="M1224.74,482.7l-40.57-53.82-41.1,53.82H1114.7l55.42-71.86-52.77-68.68h28.37l38.71,50.64,38.45-50.64h27.84l-53,68.68,56,71.86Z" transform="translate(-30 -180.68)"/><path class="cls-1" d="M1292.61,482.7l-7.89-11.24c-.73.05-1.51.1-2.3.1h-9V482.7h-5.23V446.11h14.27c9.51,0,15.26,4.81,15.26,12.75a11.56,11.56,0,0,1-8.05,11.56l8.68,12.28Zm-.15-23.84c0-5.23-3.5-8.2-10.19-8.2h-8.88v16.47h8.88C1289,467.12,1292.46,464.09,1292.46,458.86Z" transform="translate(-30 -180.68)"/><path class="cls-1" d="M1316.28,450.66h-12.54v-4.55H1334v4.55h-12.55v32h-5.18Z" transform="translate(-30 -180.68)"/><polygon class="cls-1" points="93.97 47.08 94.27 140.71 247.2 140.22 332.87 90 175 0 93.97 47.08"/><polygon class="cls-1" points="349.99 209.08 269.68 162.76 192.04 297.21 192.31 393.81 349.99 302.26 349.99 209.08"/><polygon class="cls-1" points="81.65 349.44 162.82 303.45 84.45 171.24 0 120.86 0 302.26 81.65 349.44"/><polygon class="cls-1" points="349.99 183.52 350.01 103.93 281.92 143.68 349.99 183.52"/><polygon class="cls-1" points="102.75 362.53 171.68 402.32 171.55 323.47 102.75 362.53"/><polygon class="cls-1" points="72.42 139.15 72.16 59.56 4.06 99.32 72.42 139.15"/></svg>